<?xml version="1.0" encoding="utf-8"?>
<!-- Generator: Adobe Illustrator 19.2.1, SVG Export Plug-In . SVG Version: 6.00 Build 0)  -->
<!DOCTYPE svg PUBLIC "-//W3C//DTD SVG 1.1//EN" "http://www.w3.org/Graphics/SVG/1.1/DTD/svg11.dtd">
<svg version="1.1" xmlns="http://www.w3.org/2000/svg" xmlns:xlink="http://www.w3.org/1999/xlink" x="0px" y="0px"
	 viewBox="0 0 53.7 53.7" enable-background="new 0 0 53.7 53.7" xml:space="preserve">
<g id="Layer_1">
</g>
<g id="Isolation_Mode">
	<g>
		<circle fill="none" stroke="#FCEE23" stroke-width="1.2706" stroke-miterlimit="10" cx="26.8" cy="26.8" r="26.2"/>
		<g>
			<path fill="#3DB54A" d="M32.7,18.1c23.5-13.5,15.3,27.8,0,22.5C17.4,45.9,9.2,4.6,32.7,18.1z"/>
			<path fill="#019547" d="M32.7,15.7c-4.1-3.8,4.1-3.4,5.9-7.1C35.9,15.8,33.6,16.5,32.7,15.7z"/>
			<path fill="#C3996C" d="M30.3,15.2L30.3,15.2c-0.3,0.2-0.6,0.2-0.8-0.1l-2.6-3.2c-0.2-0.3-0.2-0.6,0.1-0.8v0
				c0.3-0.2,0.6-0.2,0.8,0.1l2.6,3.2C30.6,14.6,30.5,15,30.3,15.2z"/>
		</g>
		<g>
			<path fill="#8EC641" d="M20.8,22.2C44.3,8.7,36,50,20.8,44.7C5.5,50-2.8,8.7,20.8,22.2z"/>
			<path fill="#019547" d="M20.8,19.7c-4.1-3.8,4.1-3.4,5.9-7.1C24,19.9,21.6,20.5,20.8,19.7z"/>
			<path fill="#C3996C" d="M18.3,19.3L18.3,19.3c-0.3,0.2-0.6,0.2-0.8-0.1L14.9,16c-0.2-0.3-0.2-0.6,0.1-0.8l0,0
				c0.3-0.2,0.6-0.2,0.8,0.1l2.6,3.2C18.6,18.7,18.6,19.1,18.3,19.3z"/>
		</g>
	</g>
</g>
</svg>
