<?xml version="1.0" encoding="utf-8"?>
<!-- Generator: Adobe Illustrator 19.2.1, SVG Export Plug-In . SVG Version: 6.00 Build 0)  -->
<!DOCTYPE svg PUBLIC "-//W3C//DTD SVG 1.1//EN" "http://www.w3.org/Graphics/SVG/1.1/DTD/svg11.dtd">
<svg version="1.1" xmlns="http://www.w3.org/2000/svg" xmlns:xlink="http://www.w3.org/1999/xlink" x="0px" y="0px"
	 viewBox="0 0 193.3 136.5" enable-background="new 0 0 193.3 136.5" xml:space="preserve">
<g id="Layer_1">
</g>
<g id="Isolation_Mode">
	<g>
		<rect x="78" y="96.7" fill="none" stroke="#FFFFFF" stroke-width="1.2543" stroke-miterlimit="10" width="37.3" height="10.2"/>
		<g>
			<path fill="#FFFFFF" d="M17,41.6c5.1,0-2.4-20.1,2.1-25.8C24.1,9.2,23.3,0,17,0c-6.3,0-7.2,9.2-2.1,15.8
				C19.3,21.5,11.9,41.6,17,41.6z"/>
			<path fill="#FFFFFF" d="M30.2,41.6c5.1,0-2.4-20.1,2.1-25.8C37.4,9.2,36.6,0,30.2,0c-6.3,0-7.2,9.2-2.1,15.8
				C32.6,21.5,25.2,41.6,30.2,41.6z"/>
			<path fill="#FFFFFF" d="M43.5,41.6c5.1,0-2.4-20.1,2.1-25.8C50.7,9.2,49.9,0,43.5,0c-6.3,0-7.2,9.2-2.1,15.8
				C45.9,21.5,38.5,41.6,43.5,41.6z"/>
			<path fill="#FFFFFF" d="M56.8,41.6c5.1,0-2.4-20.1,2.1-25.8C64,9.2,63.1,0,56.8,0c-6.3,0-7.2,9.2-2.1,15.8
				C59.2,21.5,51.7,41.6,56.8,41.6z"/>
			<path fill="#FFFFFF" d="M70.1,41.6c5.1,0-2.4-20.1,2.1-25.8C77.3,9.2,76.4,0,70.1,0c-6.3,0-7.2,9.2-2.1,15.8
				C72.5,21.5,65,41.6,70.1,41.6z"/>
			<path fill="#FFFFFF" d="M83.4,41.6c5.1,0-2.4-20.1,2.1-25.8C90.5,9.2,89.7,0,83.4,0c-6.3,0-7.2,9.2-2.1,15.8
				C85.7,21.5,78.3,41.6,83.4,41.6z"/>
			<path fill="#FFFFFF" d="M96.7,41.6c5.1,0-2.4-20.1,2.1-25.8C103.8,9.2,103,0,96.7,0c-6.3,0-7.2,9.2-2.1,15.8
				C99,21.5,91.6,41.6,96.7,41.6z"/>
			<path fill="#FFFFFF" d="M109.9,41.6c5.1,0-2.4-20.1,2.1-25.8c5.1-6.6,4.3-15.8-2.1-15.8c-6.3,0-7.2,9.2-2.1,15.8
				C112.3,21.5,104.9,41.6,109.9,41.6z"/>
			<path fill="#FFFFFF" d="M30.2,41.6c5.1,0-2.4-20.1,2.1-25.8C37.4,9.2,36.6,0,30.2,0c-6.3,0-7.2,9.2-2.1,15.8
				C32.6,21.5,25.2,41.6,30.2,41.6z"/>
			<path fill="#FFFFFF" d="M43.5,41.6c5.1,0-2.4-20.1,2.1-25.8C50.7,9.2,49.9,0,43.5,0c-6.3,0-7.2,9.2-2.1,15.8
				C45.9,21.5,38.5,41.6,43.5,41.6z"/>
			<path fill="#FFFFFF" d="M56.8,41.6c5.1,0-2.4-20.1,2.1-25.8C64,9.2,63.1,0,56.8,0c-6.3,0-7.2,9.2-2.1,15.8
				C59.2,21.5,51.7,41.6,56.8,41.6z"/>
			<path fill="#FFFFFF" d="M70.1,41.6c5.1,0-2.4-20.1,2.1-25.8C77.3,9.2,76.4,0,70.1,0c-6.3,0-7.2,9.2-2.1,15.8
				C72.5,21.5,65,41.6,70.1,41.6z"/>
			<path fill="#FFFFFF" d="M83.4,41.6c5.1,0-2.4-20.1,2.1-25.8C90.5,9.2,89.7,0,83.4,0c-6.3,0-7.2,9.2-2.1,15.8
				C85.7,21.5,78.3,41.6,83.4,41.6z"/>
			<path fill="#FFFFFF" d="M96.7,41.6c5.1,0-2.4-20.1,2.1-25.8C103.8,9.2,103,0,96.7,0c-6.3,0-7.2,9.2-2.1,15.8
				C99,21.5,91.6,41.6,96.7,41.6z"/>
			<path fill="#FFFFFF" d="M109.9,41.6c5.1,0-2.4-20.1,2.1-25.8c5.1-6.6,4.3-15.8-2.1-15.8c-6.3,0-7.2,9.2-2.1,15.8
				C112.3,21.5,104.9,41.6,109.9,41.6z"/>
			<path fill="#FFFFFF" d="M123.2,41.6c5.1,0-2.4-20.1,2.1-25.8c5.1-6.6,4.3-15.8-2.1-15.8c-6.3,0-7.2,9.2-2.1,15.8
				C125.6,21.5,118.2,41.6,123.2,41.6z"/>
			<path fill="#FFFFFF" d="M43.5,41.6c5.1,0-2.4-20.1,2.1-25.8C50.7,9.2,49.9,0,43.5,0c-6.3,0-7.2,9.2-2.1,15.8
				C45.9,21.5,38.5,41.6,43.5,41.6z"/>
			<path fill="#FFFFFF" d="M56.8,41.6c5.1,0-2.4-20.1,2.1-25.8C64,9.2,63.1,0,56.8,0c-6.3,0-7.2,9.2-2.1,15.8
				C59.2,21.5,51.7,41.6,56.8,41.6z"/>
			<path fill="#FFFFFF" d="M70.1,41.6c5.1,0-2.4-20.1,2.1-25.8C77.3,9.2,76.4,0,70.1,0c-6.3,0-7.2,9.2-2.1,15.8
				C72.5,21.5,65,41.6,70.1,41.6z"/>
			<path fill="#FFFFFF" d="M83.4,41.6c5.1,0-2.4-20.1,2.1-25.8C90.5,9.2,89.7,0,83.4,0c-6.3,0-7.2,9.2-2.1,15.8
				C85.7,21.5,78.3,41.6,83.4,41.6z"/>
			<path fill="#FFFFFF" d="M96.7,41.6c5.1,0-2.4-20.1,2.1-25.8C103.8,9.2,103,0,96.7,0c-6.3,0-7.2,9.2-2.1,15.8
				C99,21.5,91.6,41.6,96.7,41.6z"/>
			<path fill="#FFFFFF" d="M109.9,41.6c5.1,0-2.4-20.1,2.1-25.8c5.1-6.6,4.3-15.8-2.1-15.8c-6.3,0-7.2,9.2-2.1,15.8
				C112.3,21.5,104.9,41.6,109.9,41.6z"/>
			<path fill="#FFFFFF" d="M123.2,41.6c5.1,0-2.4-20.1,2.1-25.8c5.1-6.6,4.3-15.8-2.1-15.8c-6.3,0-7.2,9.2-2.1,15.8
				C125.6,21.5,118.2,41.6,123.2,41.6z"/>
			<path fill="#FFFFFF" d="M136.5,41.6c5.1,0-2.4-20.1,2.1-25.8c5.1-6.6,4.3-15.8-2.1-15.8c-6.3,0-7.2,9.2-2.1,15.8
				C138.9,21.5,131.4,41.6,136.5,41.6z"/>
			<path fill="#FFFFFF" d="M56.8,41.6c5.1,0-2.4-20.1,2.1-25.8C64,9.2,63.1,0,56.8,0c-6.3,0-7.2,9.2-2.1,15.8
				C59.2,21.5,51.7,41.6,56.8,41.6z"/>
			<path fill="#FFFFFF" d="M70.1,41.6c5.1,0-2.4-20.1,2.1-25.8C77.3,9.2,76.4,0,70.1,0c-6.3,0-7.2,9.2-2.1,15.8
				C72.5,21.5,65,41.6,70.1,41.6z"/>
			<path fill="#FFFFFF" d="M83.4,41.6c5.1,0-2.4-20.1,2.1-25.8C90.5,9.2,89.7,0,83.4,0c-6.3,0-7.2,9.2-2.1,15.8
				C85.7,21.5,78.3,41.6,83.4,41.6z"/>
			<path fill="#FFFFFF" d="M96.7,41.6c5.1,0-2.4-20.1,2.1-25.8C103.8,9.2,103,0,96.7,0c-6.3,0-7.2,9.2-2.1,15.8
				C99,21.5,91.6,41.6,96.7,41.6z"/>
			<path fill="#FFFFFF" d="M109.9,41.6c5.1,0-2.4-20.1,2.1-25.8c5.1-6.6,4.3-15.8-2.1-15.8c-6.3,0-7.2,9.2-2.1,15.8
				C112.3,21.5,104.9,41.6,109.9,41.6z"/>
			<path fill="#FFFFFF" d="M123.2,41.6c5.1,0-2.4-20.1,2.1-25.8c5.1-6.6,4.3-15.8-2.1-15.8c-6.3,0-7.2,9.2-2.1,15.8
				C125.6,21.5,118.2,41.6,123.2,41.6z"/>
			<path fill="#FFFFFF" d="M136.5,41.6c5.1,0-2.4-20.1,2.1-25.8c5.1-6.6,4.3-15.8-2.1-15.8c-6.3,0-7.2,9.2-2.1,15.8
				C138.9,21.5,131.4,41.6,136.5,41.6z"/>
			<path fill="#FFFFFF" d="M149.8,41.6c5.1,0-2.4-20.1,2.1-25.8C157,9.2,156.1,0,149.8,0c-6.3,0-7.2,9.2-2.1,15.8
				C152.1,21.5,144.7,41.6,149.8,41.6z"/>
			<path fill="#FFFFFF" d="M70.1,41.6c5.1,0-2.4-20.1,2.1-25.8C77.3,9.2,76.4,0,70.1,0c-6.3,0-7.2,9.2-2.1,15.8
				C72.5,21.5,65,41.6,70.1,41.6z"/>
			<path fill="#FFFFFF" d="M83.4,41.6c5.1,0-2.4-20.1,2.1-25.8C90.5,9.2,89.7,0,83.4,0c-6.3,0-7.2,9.2-2.1,15.8
				C85.7,21.5,78.3,41.6,83.4,41.6z"/>
			<path fill="#FFFFFF" d="M96.7,41.6c5.1,0-2.4-20.1,2.1-25.8C103.8,9.2,103,0,96.7,0c-6.3,0-7.2,9.2-2.1,15.8
				C99,21.5,91.6,41.6,96.7,41.6z"/>
			<path fill="#FFFFFF" d="M109.9,41.6c5.1,0-2.4-20.1,2.1-25.8c5.1-6.6,4.3-15.8-2.1-15.8c-6.3,0-7.2,9.2-2.1,15.8
				C112.3,21.5,104.9,41.6,109.9,41.6z"/>
			<path fill="#FFFFFF" d="M123.2,41.6c5.1,0-2.4-20.1,2.1-25.8c5.1-6.6,4.3-15.8-2.1-15.8c-6.3,0-7.2,9.2-2.1,15.8
				C125.6,21.5,118.2,41.6,123.2,41.6z"/>
			<path fill="#FFFFFF" d="M136.5,41.6c5.1,0-2.4-20.1,2.1-25.8c5.1-6.6,4.3-15.8-2.1-15.8c-6.3,0-7.2,9.2-2.1,15.8
				C138.9,21.5,131.4,41.6,136.5,41.6z"/>
			<path fill="#FFFFFF" d="M149.8,41.6c5.1,0-2.4-20.1,2.1-25.8C157,9.2,156.1,0,149.8,0c-6.3,0-7.2,9.2-2.1,15.8
				C152.1,21.5,144.7,41.6,149.8,41.6z"/>
			<path fill="#FFFFFF" d="M163.1,41.6c5.1,0-2.4-20.1,2.1-25.8c5.1-6.6,4.3-15.8-2.1-15.8c-6.3,0-7.2,9.2-2.1,15.8
				C165.4,21.5,158,41.6,163.1,41.6z"/>
			<path fill="#FFFFFF" d="M83.4,41.6c5.1,0-2.4-20.1,2.1-25.8C90.5,9.2,89.7,0,83.4,0c-6.3,0-7.2,9.2-2.1,15.8
				C85.7,21.5,78.3,41.6,83.4,41.6z"/>
			<path fill="#FFFFFF" d="M96.7,41.6c5.1,0-2.4-20.1,2.1-25.8C103.8,9.2,103,0,96.7,0c-6.3,0-7.2,9.2-2.1,15.8
				C99,21.5,91.6,41.6,96.7,41.6z"/>
			<path fill="#FFFFFF" d="M109.9,41.6c5.1,0-2.4-20.1,2.1-25.8c5.1-6.6,4.3-15.8-2.1-15.8c-6.3,0-7.2,9.2-2.1,15.8
				C112.3,21.5,104.9,41.6,109.9,41.6z"/>
			<path fill="#FFFFFF" d="M123.2,41.6c5.1,0-2.4-20.1,2.1-25.8c5.1-6.6,4.3-15.8-2.1-15.8c-6.3,0-7.2,9.2-2.1,15.8
				C125.6,21.5,118.2,41.6,123.2,41.6z"/>
			<path fill="#FFFFFF" d="M136.5,41.6c5.1,0-2.4-20.1,2.1-25.8c5.1-6.6,4.3-15.8-2.1-15.8c-6.3,0-7.2,9.2-2.1,15.8
				C138.9,21.5,131.4,41.6,136.5,41.6z"/>
			<path fill="#FFFFFF" d="M149.8,41.6c5.1,0-2.4-20.1,2.1-25.8C157,9.2,156.1,0,149.8,0c-6.3,0-7.2,9.2-2.1,15.8
				C152.1,21.5,144.7,41.6,149.8,41.6z"/>
			<path fill="#FFFFFF" d="M163.1,41.6c5.1,0-2.4-20.1,2.1-25.8c5.1-6.6,4.3-15.8-2.1-15.8c-6.3,0-7.2,9.2-2.1,15.8
				C165.4,21.5,158,41.6,163.1,41.6z"/>
			<path fill="#FFFFFF" d="M176.3,41.6c5.1,0-2.4-20.1,2.1-25.8c5.1-6.6,4.3-15.8-2.1-15.8c-6.3,0-7.2,9.2-2.1,15.8
				C178.7,21.5,171.3,41.6,176.3,41.6z"/>
			<path fill="#FFFFFF" d="M17,89.2c5.1,0-2.4-20.1,2.1-25.8c5.1-6.6,4.3-15.8-2.1-15.8s-7.2,9.2-2.1,15.8
				C19.3,69.1,11.9,89.2,17,89.2z"/>
			<path fill="#FFFFFF" d="M30.2,89.2c5.1,0-2.4-20.1,2.1-25.8c5.1-6.6,4.3-15.8-2.1-15.8s-7.2,9.2-2.1,15.8
				C32.6,69.1,25.2,89.2,30.2,89.2z"/>
			<path fill="#FFFFFF" d="M43.5,89.2c5.1,0-2.4-20.1,2.1-25.8c5.1-6.6,4.3-15.8-2.1-15.8s-7.2,9.2-2.1,15.8
				C45.9,69.1,38.5,89.2,43.5,89.2z"/>
			<path fill="#FFFFFF" d="M56.8,89.2c5.1,0-2.4-20.1,2.1-25.8c5.1-6.6,4.3-15.8-2.1-15.8s-7.2,9.2-2.1,15.8
				C59.2,69.1,51.7,89.2,56.8,89.2z"/>
			<path fill="#FFFFFF" d="M70.1,89.2c5.1,0-2.4-20.1,2.1-25.8c5.1-6.6,4.3-15.8-2.1-15.8s-7.2,9.2-2.1,15.8
				C72.5,69.1,65,89.2,70.1,89.2z"/>
			<path fill="#FFFFFF" d="M83.4,89.2c5.1,0-2.4-20.1,2.1-25.8c5.1-6.6,4.3-15.8-2.1-15.8c-6.3,0-7.2,9.2-2.1,15.8
				C85.7,69.1,78.3,89.2,83.4,89.2z"/>
			<path fill="#FFFFFF" d="M96.7,89.2c5.1,0-2.4-20.1,2.1-25.8c5.1-6.6,4.3-15.8-2.1-15.8s-7.2,9.2-2.1,15.8
				C99,69.1,91.6,89.2,96.7,89.2z"/>
			<path fill="#FFFFFF" d="M109.9,89.2c5.1,0-2.4-20.1,2.1-25.8c5.1-6.6,4.3-15.8-2.1-15.8s-7.2,9.2-2.1,15.8
				C112.3,69.1,104.9,89.2,109.9,89.2z"/>
			<path fill="#FFFFFF" d="M30.2,89.2c5.1,0-2.4-20.1,2.1-25.8c5.1-6.6,4.3-15.8-2.1-15.8s-7.2,9.2-2.1,15.8
				C32.6,69.1,25.2,89.2,30.2,89.2z"/>
			<path fill="#FFFFFF" d="M43.5,89.2c5.1,0-2.4-20.1,2.1-25.8c5.1-6.6,4.3-15.8-2.1-15.8s-7.2,9.2-2.1,15.8
				C45.9,69.1,38.5,89.2,43.5,89.2z"/>
			<path fill="#FFFFFF" d="M56.8,89.2c5.1,0-2.4-20.1,2.1-25.8c5.1-6.6,4.3-15.8-2.1-15.8s-7.2,9.2-2.1,15.8
				C59.2,69.1,51.7,89.2,56.8,89.2z"/>
			<path fill="#FFFFFF" d="M70.1,89.2c5.1,0-2.4-20.1,2.1-25.8c5.1-6.6,4.3-15.8-2.1-15.8s-7.2,9.2-2.1,15.8
				C72.5,69.1,65,89.2,70.1,89.2z"/>
			<path fill="#FFFFFF" d="M83.4,89.2c5.1,0-2.4-20.1,2.1-25.8c5.1-6.6,4.3-15.8-2.1-15.8c-6.3,0-7.2,9.2-2.1,15.8
				C85.7,69.1,78.3,89.2,83.4,89.2z"/>
			<path fill="#FFFFFF" d="M96.7,89.2c5.1,0-2.4-20.1,2.1-25.8c5.1-6.6,4.3-15.8-2.1-15.8s-7.2,9.2-2.1,15.8
				C99,69.1,91.6,89.2,96.7,89.2z"/>
			<path fill="#FFFFFF" d="M109.9,89.2c5.1,0-2.4-20.1,2.1-25.8c5.1-6.6,4.3-15.8-2.1-15.8s-7.2,9.2-2.1,15.8
				C112.3,69.1,104.9,89.2,109.9,89.2z"/>
			<path fill="#FFFFFF" d="M123.2,89.2c5.1,0-2.4-20.1,2.1-25.8c5.1-6.6,4.3-15.8-2.1-15.8c-6.3,0-7.2,9.2-2.1,15.8
				C125.6,69.1,118.2,89.2,123.2,89.2z"/>
			<path fill="#FFFFFF" d="M43.5,89.2c5.1,0-2.4-20.1,2.1-25.8c5.1-6.6,4.3-15.8-2.1-15.8s-7.2,9.2-2.1,15.8
				C45.9,69.1,38.5,89.2,43.5,89.2z"/>
			<path fill="#FFFFFF" d="M56.8,89.2c5.1,0-2.4-20.1,2.1-25.8c5.1-6.6,4.3-15.8-2.1-15.8s-7.2,9.2-2.1,15.8
				C59.2,69.1,51.7,89.2,56.8,89.2z"/>
			<path fill="#FFFFFF" d="M70.1,89.2c5.1,0-2.4-20.1,2.1-25.8c5.1-6.6,4.3-15.8-2.1-15.8s-7.2,9.2-2.1,15.8
				C72.5,69.1,65,89.2,70.1,89.2z"/>
			<path fill="#FFFFFF" d="M83.4,89.2c5.1,0-2.4-20.1,2.1-25.8c5.1-6.6,4.3-15.8-2.1-15.8c-6.3,0-7.2,9.2-2.1,15.8
				C85.7,69.1,78.3,89.2,83.4,89.2z"/>
			<path fill="#FFFFFF" d="M96.7,89.2c5.1,0-2.4-20.1,2.1-25.8c5.1-6.6,4.3-15.8-2.1-15.8s-7.2,9.2-2.1,15.8
				C99,69.1,91.6,89.2,96.7,89.2z"/>
			<path fill="#FFFFFF" d="M109.9,89.2c5.1,0-2.4-20.1,2.1-25.8c5.1-6.6,4.3-15.8-2.1-15.8s-7.2,9.2-2.1,15.8
				C112.3,69.1,104.9,89.2,109.9,89.2z"/>
			<path fill="#FFFFFF" d="M123.2,89.2c5.1,0-2.4-20.1,2.1-25.8c5.1-6.6,4.3-15.8-2.1-15.8c-6.3,0-7.2,9.2-2.1,15.8
				C125.6,69.1,118.2,89.2,123.2,89.2z"/>
			<path fill="#FFFFFF" d="M136.5,89.2c5.1,0-2.4-20.1,2.1-25.8c5.1-6.6,4.3-15.8-2.1-15.8c-6.3,0-7.2,9.2-2.1,15.8
				C138.9,69.1,131.4,89.2,136.5,89.2z"/>
			<path fill="#FFFFFF" d="M56.8,89.2c5.1,0-2.4-20.1,2.1-25.8c5.1-6.6,4.3-15.8-2.1-15.8s-7.2,9.2-2.1,15.8
				C59.2,69.1,51.7,89.2,56.8,89.2z"/>
			<path fill="#FFFFFF" d="M70.1,89.2c5.1,0-2.4-20.1,2.1-25.8c5.1-6.6,4.3-15.8-2.1-15.8s-7.2,9.2-2.1,15.8
				C72.5,69.1,65,89.2,70.1,89.2z"/>
			<path fill="#FFFFFF" d="M83.4,89.2c5.1,0-2.4-20.1,2.1-25.8c5.1-6.6,4.3-15.8-2.1-15.8c-6.3,0-7.2,9.2-2.1,15.8
				C85.7,69.1,78.3,89.2,83.4,89.2z"/>
			<path fill="#FFFFFF" d="M96.7,89.2c5.1,0-2.4-20.1,2.1-25.8c5.1-6.6,4.3-15.8-2.1-15.8s-7.2,9.2-2.1,15.8
				C99,69.1,91.6,89.2,96.7,89.2z"/>
			<path fill="#FFFFFF" d="M109.9,89.2c5.1,0-2.4-20.1,2.1-25.8c5.1-6.6,4.3-15.8-2.1-15.8s-7.2,9.2-2.1,15.8
				C112.3,69.1,104.9,89.2,109.9,89.2z"/>
			<path fill="#FFFFFF" d="M123.2,89.2c5.1,0-2.4-20.1,2.1-25.8c5.1-6.6,4.3-15.8-2.1-15.8c-6.3,0-7.2,9.2-2.1,15.8
				C125.6,69.1,118.2,89.2,123.2,89.2z"/>
			<path fill="#FFFFFF" d="M136.5,89.2c5.1,0-2.4-20.1,2.1-25.8c5.1-6.6,4.3-15.8-2.1-15.8c-6.3,0-7.2,9.2-2.1,15.8
				C138.9,69.1,131.4,89.2,136.5,89.2z"/>
			<path fill="#FFFFFF" d="M149.8,89.2c5.1,0-2.4-20.1,2.1-25.8c5.1-6.6,4.3-15.8-2.1-15.8c-6.3,0-7.2,9.2-2.1,15.8
				C152.1,69.1,144.7,89.2,149.8,89.2z"/>
			<path fill="#FFFFFF" d="M70.1,89.2c5.1,0-2.4-20.1,2.1-25.8c5.1-6.6,4.3-15.8-2.1-15.8s-7.2,9.2-2.1,15.8
				C72.5,69.1,65,89.2,70.1,89.2z"/>
			<path fill="#FFFFFF" d="M83.4,89.2c5.1,0-2.4-20.1,2.1-25.8c5.1-6.6,4.3-15.8-2.1-15.8c-6.3,0-7.2,9.2-2.1,15.8
				C85.7,69.1,78.3,89.2,83.4,89.2z"/>
			<path fill="#FFFFFF" d="M96.7,89.2c5.1,0-2.4-20.1,2.1-25.8c5.1-6.6,4.3-15.8-2.1-15.8s-7.2,9.2-2.1,15.8
				C99,69.1,91.6,89.2,96.7,89.2z"/>
			<path fill="#FFFFFF" d="M109.9,89.2c5.1,0-2.4-20.1,2.1-25.8c5.1-6.6,4.3-15.8-2.1-15.8s-7.2,9.2-2.1,15.8
				C112.3,69.1,104.9,89.2,109.9,89.2z"/>
			<path fill="#FFFFFF" d="M123.2,89.2c5.1,0-2.4-20.1,2.1-25.8c5.1-6.6,4.3-15.8-2.1-15.8c-6.3,0-7.2,9.2-2.1,15.8
				C125.6,69.1,118.2,89.2,123.2,89.2z"/>
			<path fill="#FFFFFF" d="M136.5,89.2c5.1,0-2.4-20.1,2.1-25.8c5.1-6.6,4.3-15.8-2.1-15.8c-6.3,0-7.2,9.2-2.1,15.8
				C138.9,69.1,131.4,89.2,136.5,89.2z"/>
			<path fill="#FFFFFF" d="M149.8,89.2c5.1,0-2.4-20.1,2.1-25.8c5.1-6.6,4.3-15.8-2.1-15.8c-6.3,0-7.2,9.2-2.1,15.8
				C152.1,69.1,144.7,89.2,149.8,89.2z"/>
			<path fill="#FFFFFF" d="M163.1,89.2c5.1,0-2.4-20.1,2.1-25.8c5.1-6.6,4.3-15.8-2.1-15.8s-7.2,9.2-2.1,15.8
				C165.4,69.1,158,89.2,163.1,89.2z"/>
			<path fill="#FFFFFF" d="M83.4,89.2c5.1,0-2.4-20.1,2.1-25.8c5.1-6.6,4.3-15.8-2.1-15.8c-6.3,0-7.2,9.2-2.1,15.8
				C85.7,69.1,78.3,89.2,83.4,89.2z"/>
			<path fill="#FFFFFF" d="M96.7,89.2c5.1,0-2.4-20.1,2.1-25.8c5.1-6.6,4.3-15.8-2.1-15.8s-7.2,9.2-2.1,15.8
				C99,69.1,91.6,89.2,96.7,89.2z"/>
			<path fill="#FFFFFF" d="M109.9,89.2c5.1,0-2.4-20.1,2.1-25.8c5.1-6.6,4.3-15.8-2.1-15.8s-7.2,9.2-2.1,15.8
				C112.3,69.1,104.9,89.2,109.9,89.2z"/>
			<path fill="#FFFFFF" d="M123.2,89.2c5.1,0-2.4-20.1,2.1-25.8c5.1-6.6,4.3-15.8-2.1-15.8c-6.3,0-7.2,9.2-2.1,15.8
				C125.6,69.1,118.2,89.2,123.2,89.2z"/>
			<path fill="#FFFFFF" d="M136.5,89.2c5.1,0-2.4-20.1,2.1-25.8c5.1-6.6,4.3-15.8-2.1-15.8c-6.3,0-7.2,9.2-2.1,15.8
				C138.9,69.1,131.4,89.2,136.5,89.2z"/>
			<path fill="#FFFFFF" d="M149.8,89.2c5.1,0-2.4-20.1,2.1-25.8c5.1-6.6,4.3-15.8-2.1-15.8c-6.3,0-7.2,9.2-2.1,15.8
				C152.1,69.1,144.7,89.2,149.8,89.2z"/>
			<path fill="#FFFFFF" d="M163.1,89.2c5.1,0-2.4-20.1,2.1-25.8c5.1-6.6,4.3-15.8-2.1-15.8s-7.2,9.2-2.1,15.8
				C165.4,69.1,158,89.2,163.1,89.2z"/>
			<path fill="#FFFFFF" d="M176.3,89.2c5.1,0-2.4-20.1,2.1-25.8c5.1-6.6,4.3-15.8-2.1-15.8c-6.3,0-7.2,9.2-2.1,15.8
				C178.7,69.1,171.3,89.2,176.3,89.2z"/>
		</g>
		<polyline fill="none" stroke="#FCEE23" stroke-width="1.2543" stroke-miterlimit="10" points="192.7,80.3 176.3,96.7 17,96.7 
			0.6,80.3 		"/>
		<path fill="#F89521" stroke="#FFFFFF" stroke-width="1.2543" stroke-miterlimit="10" d="M187.1,135.9H6.2c-3.1,0-5.6-2.5-5.6-5.6
			v-17.9c0-3.1,2.5-5.6,5.6-5.6h180.9c3.1,0,5.6,2.5,5.6,5.6v17.9C192.7,133.4,190.2,135.9,187.1,135.9z"/>
		<path fill="#764E2A" stroke="#FFFFFF" stroke-width="1.2543" stroke-miterlimit="10" d="M131.2,110.5H62.1c-1.6,0-2.9,1.3-2.9,2.9
			v15.9c0,1.6,1.3,2.9,2.9,2.9h69.2c1.6,0,2.9-1.3,2.9-2.9v-15.9C134.1,111.8,132.8,110.5,131.2,110.5z"/>
		<g>
			<rect x="73.6" y="115.5" fill="none" width="48.2" height="13.1"/>
			<path fill="#FFFFFF" d="M76.5,117.1l-1.5,1.1v-1.6l1.5-1.1H78v10.7h-1.5V117.1z"/>
			<path fill="#FFFFFF" d="M83.7,117.1l-1.5,1.1v-1.6l1.5-1.1h1.5v10.7h-1.5V117.1z"/>
			<path fill="#FFFFFF" d="M88.6,118.5c0-1,0.3-1.7,0.9-2.3c0.6-0.5,1.2-0.8,2-0.8c0.8,0,1.5,0.3,2.1,0.8c0.6,0.5,0.9,1.3,0.9,2.3
				v4.7c0,1-0.3,1.7-0.9,2.3c-0.6,0.5-1.3,0.8-2.1,0.8c-0.8,0-1.5-0.3-2-0.8c-0.6-0.5-0.9-1.3-0.9-2.3V118.5z M93.1,118.6
				c0-1.1-0.5-1.6-1.5-1.6c-1,0-1.4,0.6-1.5,1.6v4.6c0,1.1,0.5,1.6,1.5,1.6c0.9,0,1.4-0.6,1.5-1.6V118.6z"/>
			<path fill="#FFFFFF" d="M96.3,124.7h1.5v1.5h-1.5V124.7z"/>
			<path fill="#FFFFFF" d="M99.5,118.5c0-1,0.3-1.7,0.9-2.3c0.6-0.5,1.2-0.8,2-0.8c0.8,0,1.5,0.3,2.1,0.8c0.6,0.5,0.9,1.3,0.9,2.3
				v4.7c0,1-0.3,1.7-0.9,2.3c-0.6,0.5-1.3,0.8-2.1,0.8c-0.8,0-1.5-0.3-2-0.8c-0.6-0.5-0.9-1.3-0.9-2.3V118.5z M103.9,118.6
				c0-1.1-0.5-1.6-1.5-1.6c-1,0-1.4,0.6-1.5,1.6v4.6c0,1.1,0.5,1.6,1.5,1.6c0.9,0,1.4-0.6,1.5-1.6V118.6z"/>
			<path fill="#FFFFFF" d="M114.9,125.4c-0.5,0.6-1.1,0.9-1.9,0.9c-0.5,0-0.9-0.1-1.2-0.3c-0.3-0.2-0.6-0.4-0.8-0.6
				c-0.2-0.2-0.3-0.6-0.4-0.9c-0.1-0.4-0.1-1-0.1-2c0-1,0-1.7,0.1-2.1c0.1-0.4,0.2-0.7,0.4-0.9c0.2-0.2,0.4-0.5,0.8-0.6
				c0.3-0.2,0.7-0.3,1.2-0.3c0.7,0,1.4,0.3,1.9,0.9v-0.8h1.5v7.4c0,1.1-0.3,2-1,2.5c-0.6,0.6-1.4,0.8-2.2,0.8c-1,0-1.9-0.4-2.6-1.3
				l1.2-0.9c0.2,0.2,0.4,0.3,0.7,0.5c0.3,0.1,0.5,0.2,0.8,0.2c0.5,0,0.9-0.1,1.2-0.4c0.3-0.3,0.5-0.7,0.5-1.2V125.4z M111.9,122.4
				c0,0.6,0,1,0.1,1.2c0,0.2,0.1,0.4,0.2,0.6c0.1,0.1,0.3,0.3,0.5,0.4c0.2,0.1,0.4,0.2,0.7,0.2c0.3,0,0.5-0.1,0.7-0.2
				c0.2-0.1,0.3-0.2,0.4-0.4c0.1-0.2,0.2-0.3,0.2-0.6c0-0.2,0-0.6,0-1.2c0-0.6,0-1,0-1.2c0-0.2-0.1-0.4-0.2-0.6
				c-0.1-0.1-0.2-0.3-0.4-0.4c-0.2-0.1-0.4-0.2-0.7-0.2c-0.3,0-0.5,0.1-0.7,0.2c-0.2,0.1-0.4,0.3-0.5,0.4c-0.1,0.1-0.2,0.3-0.2,0.6
				C112,121.4,111.9,121.8,111.9,122.4z"/>
		</g>
	</g>
</g>
</svg>
