<?xml version="1.0" encoding="utf-8"?>
<!-- Generator: Adobe Illustrator 19.2.1, SVG Export Plug-In . SVG Version: 6.00 Build 0)  -->
<!DOCTYPE svg PUBLIC "-//W3C//DTD SVG 1.1//EN" "http://www.w3.org/Graphics/SVG/1.1/DTD/svg11.dtd">
<svg version="1.1" xmlns="http://www.w3.org/2000/svg" xmlns:xlink="http://www.w3.org/1999/xlink" x="0px" y="0px"
	 viewBox="0 0 58.1 53.7" enable-background="new 0 0 58.1 53.7" xml:space="preserve">
<g id="Layer_1">
</g>
<g id="Isolation_Mode">
	<g>
		<circle fill="none" stroke="#FCEE23" stroke-width="1.2706" stroke-miterlimit="10" cx="28.3" cy="26.8" r="26.2"/>
		<g>
			<ellipse transform="matrix(0.2041 -0.979 0.979 0.2041 2.699 41.0524)" fill="#3C2517" cx="26.6" cy="18.9" rx="10" ry="14.5"/>
			<g>
				<path fill="#FFFFFF" d="M23.4,12.9l-0.1,0.3c0.4-0.2,0.7-0.3,1-0.3c0.3,0,0.6,0.1,0.9,0.2c0.7,0.3,1,0.8,1.1,1.5
					c0.4-0.2,0.7-0.3,1-0.2c0.3,0,0.6,0.1,1,0.3c0.4,0.2,0.7,0.5,0.9,0.8c0.2,0.4,0.4,0.7,0.3,1.1c0,0.3-0.2,0.6-0.4,1.1l-0.5,1
					l-0.4,0.8C28.1,19.8,28,20,28,20.1c-0.1,0.3-0.1,0.4,0.1,0.5c0,0,0.1,0,0.2,0.1c0.1,0,0.2,0,0.2,0.1c0.2,0.1,0.3,0.3,0.2,0.5
					c-0.1,0.2-0.3,0.3-0.6,0.2c-0.1-0.1-0.3-0.1-0.4-0.3c-0.2-0.1-0.3-0.2-0.5-0.3c-0.1-0.1-0.3-0.1-0.5-0.2
					c-0.2-0.1-0.4-0.2-0.5-0.2c-0.3-0.1-0.4-0.3-0.2-0.6c0.1-0.2,0.3-0.3,0.5-0.1c0,0,0.1,0.1,0.2,0.1c0,0,0.1,0.1,0.2,0.1
					c0.1,0.1,0.2,0,0.3-0.1c0.1-0.1,0.3-0.4,0.5-0.8l0.3-0.6l0.3-0.7c0.2-0.5,0.4-0.8,0.4-1.1c0-0.3,0-0.5-0.1-0.7
					c-0.1-0.2-0.3-0.4-0.6-0.5c-0.5-0.2-0.9-0.2-1.3,0c-0.3,0.2-0.6,0.6-0.9,1.3l-0.4,0.7c-0.3,0.6-0.5,1-0.6,1.2s0,0.3,0.1,0.4
					c0,0,0.1,0,0.2,0.1c0.1,0,0.1,0,0.2,0.1c0.1,0,0.2,0.1,0.2,0.2c0,0.1,0,0.2,0,0.3c-0.1,0.2-0.3,0.3-0.6,0.1
					c-0.1-0.1-0.2-0.1-0.4-0.3s-0.3-0.2-0.4-0.3c-0.1-0.1-0.3-0.1-0.5-0.2s-0.3-0.1-0.5-0.2c-0.3-0.1-0.4-0.3-0.2-0.6
					c0.1-0.2,0.3-0.3,0.5-0.2c0.1,0,0.1,0.1,0.2,0.1c0.1,0.1,0.1,0.1,0.2,0.2c0.2,0.1,0.3,0,0.5-0.4l0.3-0.5
					c0.1-0.2,0.1-0.3,0.2-0.4c0.1-0.1,0.1-0.2,0.1-0.2l0.4-0.9c0.3-0.6,0.4-1,0.4-1.4s-0.3-0.6-0.7-0.8c-0.5-0.2-0.9-0.2-1.3,0
					c-0.3,0.2-0.7,0.6-1,1.2l-0.7,1.4c-0.1,0.3-0.2,0.4-0.2,0.5c-0.1,0.2-0.1,0.4,0,0.5c0,0,0.1,0,0.2,0.1c0,0,0,0,0.1,0
					c0,0,0.1,0,0.1,0c0.3,0.1,0.3,0.3,0.2,0.5c-0.1,0.2-0.3,0.2-0.6,0.1c-0.1-0.1-0.3-0.1-0.4-0.2c-0.2-0.1-0.4-0.3-0.6-0.3
					c-0.1,0-0.2-0.1-0.5-0.2c-0.3-0.1-0.5-0.2-0.6-0.2c-0.3-0.1-0.3-0.3-0.2-0.6c0.1-0.2,0.3-0.2,0.6-0.1c0,0,0,0,0.1,0
					c0,0,0,0,0.1,0l0.2,0.2c0,0,0,0,0,0c0.2,0.1,0.4,0,0.6-0.3l0.3-0.6l0.8-1.6c0.3-0.6,0.5-0.9,0.5-1.1c0-0.2,0-0.3-0.1-0.3
					c0,0-0.1,0-0.3-0.1c-0.1,0-0.1,0-0.2-0.1c-0.3-0.1-0.3-0.3-0.2-0.5c0.1-0.2,0.3-0.3,0.6-0.1c0.1,0,0.2,0.1,0.3,0.2
					c0.1,0.1,0.2,0.1,0.3,0.2c0,0,0.1,0,0.1,0.1s0.1,0,0.1,0l0.3,0.1l0,0C23.5,12.6,23.5,12.7,23.4,12.9z"/>
			</g>
		</g>
		<g>
			<ellipse fill="#F15B2B" cx="16.6" cy="36.1" rx="16.6" ry="11.4"/>
			<g>
				<path fill="#FFFFFF" d="M11.6,29.9l-0.1,0.4c0.4-0.3,0.8-0.5,1.1-0.5c0.3-0.1,0.7,0,1.1,0.1c0.8,0.2,1.4,0.7,1.6,1.5
					c0.4-0.3,0.7-0.4,1.1-0.5c0.3-0.1,0.7,0,1.2,0.1c0.5,0.1,0.9,0.3,1.2,0.7c0.4,0.3,0.6,0.7,0.6,1.2c0,0.3,0,0.8-0.2,1.4l-0.3,1.2
					l-0.3,1c-0.1,0.3-0.1,0.6-0.2,0.6c0,0.3,0,0.5,0.2,0.5c0.1,0,0.2,0,0.3,0c0.1,0,0.2,0,0.3,0c0.3,0.1,0.4,0.2,0.3,0.5
					c-0.1,0.3-0.3,0.4-0.6,0.3c-0.1,0-0.3-0.1-0.6-0.2c-0.2-0.1-0.4-0.2-0.6-0.2c-0.1,0-0.4-0.1-0.6-0.1c-0.3,0-0.5-0.1-0.6-0.1
					c-0.4-0.1-0.5-0.3-0.4-0.6c0.1-0.3,0.2-0.3,0.5-0.3c0,0,0.1,0,0.2,0.1c0,0,0.1,0.1,0.2,0.1c0.1,0,0.3,0,0.3-0.1
					c0.1-0.1,0.2-0.5,0.4-1.1l0.2-0.8l0.2-0.8c0.2-0.6,0.2-1,0.2-1.3c0-0.3-0.1-0.5-0.3-0.8c-0.2-0.2-0.5-0.4-0.8-0.5
					c-0.6-0.2-1.1-0.1-1.4,0.3c-0.3,0.3-0.5,0.8-0.7,1.6l-0.2,0.9c-0.2,0.8-0.3,1.3-0.3,1.5c0,0.2,0.1,0.3,0.2,0.4
					c0.1,0,0.1,0,0.2,0c0.1,0,0.2,0,0.2,0c0.1,0,0.2,0.1,0.3,0.2c0.1,0.1,0.1,0.2,0,0.3c-0.1,0.3-0.3,0.4-0.7,0.3
					c-0.1,0-0.3-0.1-0.5-0.2c-0.2-0.1-0.4-0.2-0.6-0.2c-0.2,0-0.4-0.1-0.6-0.1c-0.2,0-0.4-0.1-0.6-0.1c-0.3-0.1-0.5-0.3-0.4-0.6
					c0.1-0.3,0.2-0.4,0.5-0.3c0.1,0,0.2,0.1,0.2,0.1c0.1,0.1,0.2,0.1,0.3,0.1c0.2,0.1,0.4-0.1,0.5-0.6l0.2-0.6
					c0-0.2,0.1-0.4,0.1-0.5c0-0.2,0.1-0.2,0.1-0.2l0.3-1.1c0.2-0.7,0.2-1.3,0.1-1.6c-0.1-0.3-0.4-0.6-0.9-0.7
					c-0.6-0.2-1-0.1-1.4,0.3c-0.3,0.3-0.6,0.8-0.8,1.6l-0.5,1.7c-0.1,0.3-0.1,0.5-0.1,0.6c0,0.3,0,0.5,0.2,0.5c0,0,0.1,0,0.3,0
					c0,0,0,0,0.1,0c0,0,0.1,0,0.1,0c0.3,0.1,0.5,0.3,0.4,0.6c-0.1,0.3-0.3,0.4-0.7,0.3c-0.1,0-0.3-0.1-0.5-0.2
					c-0.3-0.1-0.5-0.2-0.7-0.2c-0.1,0-0.3-0.1-0.6-0.1c-0.4-0.1-0.6-0.1-0.7-0.1c-0.3-0.1-0.5-0.3-0.4-0.6c0.1-0.3,0.3-0.3,0.6-0.3
					c0,0,0,0,0.1,0c0,0,0.1,0,0.1,0l0.3,0.2c0,0,0,0,0,0c0.2,0.1,0.4-0.1,0.5-0.5l0.2-0.7l0.5-1.9c0.2-0.7,0.3-1.2,0.3-1.4
					c0-0.2-0.1-0.3-0.2-0.3c0,0-0.2,0-0.4,0c-0.1,0-0.2,0-0.2,0c-0.3-0.1-0.4-0.3-0.4-0.5c0.1-0.3,0.3-0.4,0.6-0.3
					c0.1,0,0.2,0.1,0.4,0.1c0.2,0.1,0.3,0.1,0.4,0.1c0,0,0.1,0,0.1,0c0.1,0,0.1,0,0.1,0l0.3,0l0,0C11.6,29.5,11.6,29.7,11.6,29.9z"
					/>
			</g>
		</g>
		<g>
			<ellipse transform="matrix(0.8266 -0.5628 0.5628 0.8266 -4.9081 29.9494)" fill="#FCEE23" cx="46.1" cy="22.9" rx="13" ry="9"/>
			<g>
				<path fill="#FFFFFF" d="M51.7,24.9l-0.2-0.4c-0.3,0.8-0.7,1.2-1.3,1.4c-0.5,0.2-1,0.1-1.5-0.3c-0.2,0.4-0.4,0.7-0.6,0.9
					c-0.2,0.2-0.4,0.3-0.8,0.4c-0.6,0.2-1.1,0.2-1.6-0.1c-0.3-0.2-0.6-0.6-0.8-1.2L44.5,24c-0.1-0.3-0.2-0.5-0.4-0.4
					c0,0-0.1,0-0.1,0.1c0,0-0.1,0.1-0.1,0.1c-0.3,0.1-0.5,0-0.6-0.4c-0.1-0.2-0.1-0.4,0-0.5c0.1-0.2,0.2-0.3,0.3-0.3
					c0,0,0.1,0,0.3-0.1l0.2,0c0.1,0,0.2-0.1,0.4-0.1c0.2-0.1,0.4-0.2,0.6-0.2c0.2-0.1,0.3-0.2,0.4-0.2c0.2-0.1,0.3,0,0.4,0
					c0.1,0.1,0.2,0.2,0.3,0.4c0.1,0.3,0,0.5-0.2,0.6c-0.1,0.1-0.2,0.1-0.2,0.2c0,0.1,0,0.2,0.1,0.4l0.4,1c0.1,0.4,0.3,0.7,0.4,0.8
					c0.1,0.1,0.3,0.1,0.6,0.1c0.6-0.2,0.7-0.7,0.4-1.5l-0.3-0.9c-0.1-0.2-0.1-0.4-0.2-0.4c0-0.1-0.1-0.1-0.2-0.1
					c-0.2,0-0.4-0.1-0.5-0.4c-0.2-0.4,0-0.7,0.3-0.9c0.1,0,0.2-0.1,0.3-0.1c0.2,0,0.4-0.1,0.4-0.1c0.1,0,0.2-0.1,0.3-0.2
					c0.1-0.1,0.3-0.1,0.3-0.2c0.3-0.1,0.5,0,0.7,0.4c0.1,0.3,0.1,0.5-0.1,0.6c-0.1,0.1-0.1,0.2-0.1,0.3c0.1,0.2,0.1,0.3,0.1,0.3
					l0.4,1.1c0.1,0.4,0.3,0.6,0.4,0.7c0.1,0.1,0.3,0.1,0.5,0.1c0.6-0.2,0.7-0.7,0.4-1.5l-0.4-1.2c0-0.1-0.1-0.2-0.1-0.2
					c0,0-0.1,0-0.2,0c-0.3,0-0.5-0.1-0.6-0.4c-0.1-0.4,0-0.7,0.3-0.8c0.1,0,0.3-0.1,0.5-0.1c0.2-0.1,0.4-0.1,0.5-0.1
					c0.1-0.1,0.3-0.1,0.4-0.2c0.2-0.1,0.4-0.2,0.5-0.2c0.2-0.1,0.3-0.1,0.5,0c0.1,0.1,0.3,0.2,0.3,0.4c0.1,0.4,0,0.6-0.3,0.7
					c-0.1,0-0.1,0-0.2,0c-0.1,0-0.1,0-0.2,0c-0.1,0-0.1,0.2,0,0.6l0.6,1.6c0.1,0.4,0.2,0.5,0.4,0.5c0,0,0.1,0,0.1-0.1
					c0.1,0,0.1-0.1,0.2-0.1c0.3-0.1,0.5,0,0.7,0.4c0.1,0.2,0.1,0.4,0,0.5c-0.1,0.2-0.2,0.3-0.4,0.3c0,0-0.2,0-0.3,0.1
					c-0.1,0-0.2,0-0.3,0.1c-0.1,0-0.2,0.1-0.3,0.2c-0.1,0.1-0.3,0.1-0.3,0.2C51.9,25.1,51.8,25.1,51.7,24.9z"/>
			</g>
		</g>
	</g>
</g>
</svg>
