<?xml version="1.0" encoding="utf-8"?>
<!-- Generator: Adobe Illustrator 19.2.1, SVG Export Plug-In . SVG Version: 6.00 Build 0)  -->
<!DOCTYPE svg PUBLIC "-//W3C//DTD SVG 1.1//EN" "http://www.w3.org/Graphics/SVG/1.1/DTD/svg11.dtd">
<svg version="1.1" xmlns="http://www.w3.org/2000/svg" xmlns:xlink="http://www.w3.org/1999/xlink" x="0px" y="0px"
	 viewBox="0 0 63.9 53.7" enable-background="new 0 0 63.9 53.7" xml:space="preserve">
<g id="Layer_1">
</g>
<g id="Isolation_Mode">
	<g>
		<circle fill="none" stroke="#FCEE23" stroke-width="1.2706" stroke-miterlimit="10" cx="37" cy="26.8" r="26.2"/>
		<g>
			<path fill="#010101" d="M23.1,45.3l-13-8.7c-1.8-1.2-2.3-3.7-1.1-5.5l4.4-6.5c1.2-1.8,3.7-2.3,5.5-1.1l13,8.7
				c1.8,1.2,2.3,3.7,1.1,5.5l-4.4,6.5C27.3,46,24.9,46.5,23.1,45.3z"/>
			<polygon fill="#010101" points="29.2,39.9 41.5,38.7 32.8,51.8 			"/>
			<polygon fill="#010101" points="12.3,28.6 8.7,16.8 0,29.9 			"/>
		</g>
		<g>
			<path fill="#F15B2B" d="M55.1,21.8L43.5,32.3c-1.6,1.5-4.1,1.3-5.6-0.3l-5.3-5.8c-1.5-1.6-1.3-4.1,0.3-5.6l11.6-10.5
				c1.6-1.5,4.1-1.3,5.6,0.3l5.3,5.8C56.8,17.8,56.7,20.3,55.1,21.8z"/>
			<polygon fill="#F15B2B" points="51.4,14.5 53.2,2.3 63.7,13.9 			"/>
			<polygon fill="#F15B2B" points="36.3,28.2 23.9,28.7 34.5,40.4 			"/>
		</g>
	</g>
</g>
</svg>
