<?xml version="1.0" encoding="utf-8"?>
<!-- Generator: Adobe Illustrator 19.2.1, SVG Export Plug-In . SVG Version: 6.00 Build 0)  -->
<!DOCTYPE svg PUBLIC "-//W3C//DTD SVG 1.1//EN" "http://www.w3.org/Graphics/SVG/1.1/DTD/svg11.dtd">
<svg version="1.1" xmlns="http://www.w3.org/2000/svg" xmlns:xlink="http://www.w3.org/1999/xlink" x="0px" y="0px"
	 viewBox="0 0 80 60.6" enable-background="new 0 0 80 60.6" xml:space="preserve">
<g id="Layer_1">
</g>
<g id="Isolation_Mode">
	<g>
		<circle fill="none" stroke="#FCEE23" stroke-width="1.2706" stroke-miterlimit="10" cx="38.2" cy="30.7" r="26.2"/>
		<g>
			<line fill="none" stroke="#C3996C" stroke-width="1.2706" stroke-miterlimit="10" x1="23.7" y1="40" x2="27.2" y2="60.5"/>
			<path fill="#EC2227" d="M25.2,20.2c23.5-13.5,15.3,27.8,0,22.5C9.9,48,1.7,6.7,25.2,20.2z"/>
			<g>
				<path fill="#FBB041" d="M8.5,37.9c2.9-3,4.4-7,7.4-3c3,4,4.4-0.2,5.7-0.8s1.9-0.5,3.6,2.5c1.7,3,5.6,1.1,7.3-1.9
					c1.7-3,2.2-0.2,3.4,2.3c1.2,2.5,7.6-4,7.5-6.6C43.3,27.8,45,7.2,45,7.2L0,9.9L8.5,37.9z"/>
				<path fill="none" d="M25.2,20.2c23.5-13.5,15.3,27.8,0,22.5C9.9,48,1.7,6.7,25.2,20.2z"/>
			</g>
		</g>
		<g>
			<g>
				<line fill="none" stroke="#C3996C" stroke-width="1.2706" stroke-miterlimit="10" x1="43.6" y1="39.1" x2="29.4" y2="54.2"/>
				<path fill="#3DB54A" d="M53.3,21.8C41.2-2.5,25.2,36.5,40.9,40.5C50.7,53.4,80.4,23.5,53.3,21.8z"/>
				<g>
					<path fill="#FBB041" d="M57.5,45.7c-0.8-4.1,0.2-8.3-4.5-6.6s-3.5-2.6-4.3-3.9s-1.3-1.4-4.4,0.1c-3.1,1.6-5.3-2.2-5-5.6
						c0.3-3.5-1.7-1.4-4.1,0c-2.4,1.5-4.1-7.6-2.6-9.6C34.1,18.1,44,0,44,0l36,27L57.5,45.7z"/>
					<path fill="none" d="M53.3,21.8C41.2-2.5,25.2,36.5,40.9,40.5C50.7,53.4,80.4,23.5,53.3,21.8z"/>
				</g>
			</g>
			<path fill="#019547" d="M55,20.6c-2.2-5.1,5.1-1.5,8.3-4.2C57.9,22.1,55.5,21.7,55,20.6z"/>
			<path fill="#C3996C" d="M53,19.2L53,19.2c-0.3,0.1-0.6-0.1-0.7-0.4l-1.1-4c-0.1-0.3,0.1-0.6,0.4-0.7l0,0c0.3-0.1,0.6,0.1,0.7,0.4
				l1.1,4C53.5,18.8,53.3,19.1,53,19.2z"/>
		</g>
		<path fill="#019547" d="M26.4,18.6c-4.1-3.8,4.1-3.4,5.9-7.1C29.6,18.8,27.2,19.4,26.4,18.6z"/>
		<path fill="#C3996C" d="M23.9,18.1L23.9,18.1c-0.3,0.2-0.6,0.2-0.8-0.1l-2.6-3.2c-0.2-0.3-0.2-0.6,0.1-0.8h0
			c0.3-0.2,0.6-0.2,0.8,0.1l2.6,3.2C24.2,17.5,24.2,17.9,23.9,18.1z"/>
	</g>
</g>
</svg>
