<?xml version="1.0" encoding="utf-8"?>
<!-- Generator: Adobe Illustrator 19.2.1, SVG Export Plug-In . SVG Version: 6.00 Build 0)  -->
<!DOCTYPE svg PUBLIC "-//W3C//DTD SVG 1.1//EN" "http://www.w3.org/Graphics/SVG/1.1/DTD/svg11.dtd">
<svg version="1.1" xmlns="http://www.w3.org/2000/svg" xmlns:xlink="http://www.w3.org/1999/xlink" x="0px" y="0px"
	 viewBox="0 0 303.3 55.9" enable-background="new 0 0 303.3 55.9" xml:space="preserve">
<g id="Layer_1">
</g>
<g id="Isolation_Mode">
	<g>
		<polygon fill="#EF4237" points="279.5,55.9 272.2,55.9 275.4,43.2 251.6,46.4 255.8,40.9 249,37.4 253.8,34.1 249.3,28 271.1,31 
			264.2,5 271.5,12.3 276.5,0 281.5,10.8 288.8,5 282.8,31.1 303.3,25.6 295.5,33.4 303.3,38 295.5,40.3 300.4,46.4 279.5,43.8 		
			"/>
		<polygon fill="#EF4237" points="217.2,55.9 209.9,55.9 213.2,43.2 189.4,46.4 193.6,40.9 186.7,37.4 191.6,34.1 187.1,28 
			208.9,31 202,5 209.3,12.3 214.2,0 219.2,10.8 226.5,5 220.5,31.1 241.1,25.6 233.2,33.4 241.1,38 233.2,40.3 238.2,46.4 
			217.2,43.8 		"/>
		<polygon fill="#EF4237" points="155,55.9 147.7,55.9 150.9,43.2 127.1,46.4 131.3,40.9 124.5,37.4 129.3,34.1 124.8,28 146.6,31 
			139.7,5 147,12.3 152,0 157,10.8 164.3,5 158.3,31.1 178.8,25.6 171,33.4 178.8,38 171,40.3 175.9,46.4 155,43.8 		"/>
		<polygon fill="#EF4237" points="92.8,55.9 85.5,55.9 88.7,43.2 64.9,46.4 69.1,40.9 62.2,37.4 67.1,34.1 62.6,28 84.4,31 77.5,5 
			84.8,12.3 89.8,0 94.7,10.8 102,5 96.1,31.1 116.6,25.6 108.8,33.4 116.6,38 108.8,40.3 113.7,46.4 92.8,43.8 		"/>
		<polyline fill="#EF4237" points="27.5,0 32.5,10.8 39.8,5 33.8,31.1 54.3,25.6 46.5,33.4 54.3,38 46.5,40.3 51.5,46.4 30.5,43.8 
			30.5,55.9 23.2,55.9 26.4,43.2 2.6,46.4 6.8,40.9 0,37.4 4.9,34.1 0.4,28 22.2,31 15.2,5 22.5,12.3 		"/>
		<g>
			<rect x="14.5" y="20.5" fill="#FFFFFF" width="25.3" height="22.8"/>
			<g>
				<g>
					<g>
						<g>
							<path fill="#FFFFFF" d="M43.7,43.2c-0.1,0.1,0.6,0.1,0.7,0.1C44.3,43.1,43.5,43.2,43.7,43.2z"/>
							<polygon fill="#FFFFFF" points="42.2,40.8 42.5,40.9 41.8,40.5 							"/>
							<path fill="#FFFFFF" d="M42.2,38.6c-1.1,0.2,0.2,0.8-0.2,1.2l-0.3,0.1l0.9,0.2C42.5,39.6,41.9,39,42.2,38.6z"/>
							<path fill="#FFFFFF" d="M44.7,37.5c-0.4,0.1-0.4-0.3-0.1,0.3c0,0,0.1,0,0.1,0C44.6,37.7,44.6,37.6,44.7,37.5z"/>
							<path fill="#FFFFFF" d="M44.6,37.7C44.7,37.9,45,37.6,44.6,37.7L44.6,37.7z"/>
							<path fill="#FFFFFF" d="M44.4,36.6l0.4,0.3c0.3-0.1,0.3-0.3,0.5-0.2C45.1,36.4,44.8,36.5,44.4,36.6z"/>
							<path fill="#FFFFFF" d="M43.5,36.3l0.2,0.2C43.8,36.5,43.9,36.4,43.5,36.3z"/>
							<path fill="#FFFFFF" d="M44.1,36.8l-0.4-0.3c-0.2,0-0.6,0,0.1,0.2C43.5,36.6,43.8,36.7,44.1,36.8z"/>
							<path fill="#FFFFFF" d="M43.9,37c-0.2,0.2-0.4,0.4-0.8,0.1C43.3,37.7,44.1,37.6,43.9,37z"/>
							<path fill="#FFFFFF" d="M41,38.5l-0.3,0.2l0.4,0.2C40.9,38.9,41.4,38.5,41,38.5z"/>
							<path fill="#FFFFFF" d="M45,34.7c-0.2,0-0.6,0.1-1,0.1l0.3,0.2C44.5,35,44.6,34.8,45,34.7z"/>
							<path fill="#FFFFFF" d="M44,34.9l-0.4-0.3C43.5,34.8,43.7,34.9,44,34.9z"/>
							<polygon fill="#FFFFFF" points="42.3,36.3 43.2,36.8 42.3,36.2 							"/>
							<polygon fill="#FFFFFF" points="45,33.5 45.6,33.7 44.7,33.3 							"/>
							<path fill="#FFFFFF" d="M44.9,32.6c0.5,0.1,0.8-0.2,1.1,0c-0.1-0.2-0.5-0.4-0.8-0.6C45.3,32.1,45.3,32.3,44.9,32.6z"/>
							<path fill="#FFFFFF" d="M44.6,31.7c0.1,0.1,0.3,0.2,0.5,0.3C45,31.9,44.9,31.8,44.6,31.7z"/>
							<path fill="#FFFFFF" d="M43.7,34c0.1,0,0.5-0.1,0.7-0.3l-0.7,0.1C43.7,33.9,43.7,33.9,43.7,34z"/>
							<path fill="#FFFFFF" d="M43.7,33.8L43.7,33.8c0-0.1,0.1-0.2,0.1-0.3C43.8,33.6,43.7,33.7,43.7,33.8z"/>
							<path fill="#FFFFFF" d="M43.7,34L43.7,34C43.6,34,43.6,34,43.7,34z"/>
							<path fill="#FFFFFF" d="M42.9,35.4c-0.4-0.2-0.8-0.6-1.4-0.2C42,35.3,42.3,35.1,42.9,35.4z"/>
							<path fill="#FFFFFF" d="M42.9,34.2l-0.2,0.4c0.2,0,0.4-0.1,0.6,0L42.9,34.2z"/>
							<polygon fill="#FFFFFF" points="42.6,34 42.9,34.2 42.9,34 							"/>
							<path fill="#FFFFFF" d="M44,32.3c-0.3-0.2-0.3-0.3-0.4-0.5c-0.1,0.2-0.2,0.4-0.2,0.6C43.6,32.4,44,32.5,44,32.3z"/>
							<path fill="#FFFFFF" d="M43.8,33L43.8,33C43.7,33,43.7,33,43.8,33z"/>
							<path fill="#FFFFFF" d="M43.6,29.9c0,0-0.1,0-0.1,0L43.6,29.9L43.6,29.9z"/>
							<path fill="#FFFFFF" d="M43.3,32.4c-0.1,0.2,0,0.2,0.2,0.3c-0.1-0.1-0.1-0.2-0.1-0.4C43.3,32.4,43.2,32.4,43.3,32.4z"/>
							<path fill="#FFFFFF" d="M44.3,31.1c-0.1,0.1-0.3,0.2-0.4,0.3C44.1,31.3,44.5,31.2,44.3,31.1z"/>
							<path fill="#FFFFFF" d="M43.9,32.9C43.9,33,44,33,43.9,32.9C44.1,32.9,44,32.9,43.9,32.9z"/>
							<path fill="#FFFFFF" d="M43.9,32.9c-0.1-0.1-0.3-0.1-0.4-0.2c0.1,0.1,0.1,0.2,0.2,0.3C43.8,33,43.9,33,43.9,32.9z"/>
							<path fill="#FFFFFF" d="M39.2,29.3c0.6,0,1.2,0.4,0.5,0.8c0.5,0.3,2.6,0.1,3.7-0.2c-0.3,0-0.5,0-0.9-0.4
								c-0.3,0.1-0.8,0.8-1.4,0.5c-0.3-0.5,0.2-0.4,0.6-0.6c-0.8,0.2-1.1-0.6-2.3-0.5l0.4,0.4C39.7,29.4,39.4,29.2,39.2,29.3z"/>
							<path fill="#FFFFFF" d="M43.4,30.6l0.1,0.1c0.1-0.2,0.4-0.3,0.9-0.5c-0.3-0.2-0.5-0.3-0.8-0.3L43.4,30.6L43.4,30.6z"/>
							<path fill="#FFFFFF" d="M43.5,31.4c-0.7-0.1-1-0.5-1.7-0.2c0,0.4,0.6,0.3,0.9,0.6C42.5,31,43,31.9,43.5,31.4
								c0,0.1,0.1,0.3,0.1,0.4c0.1-0.1,0.2-0.2,0.3-0.4l0,0l0,0l0,0c-0.1,0-0.1,0-0.1,0c0,0,0,0,0,0C43.7,31.4,43.6,31.4,43.5,31.4
								c0.1-0.2,0.2,0,0.3,0c0,0,0.1,0,0.1,0l0,0l-0.4-0.7C43.4,30.9,43.4,31.1,43.5,31.4z"/>
							<path fill="#FFFFFF" d="M40,34.8c0.1,0,0.1,0,0.2,0C40.1,34.8,40.1,34.8,40,34.8z"/>
							<path fill="#FFFFFF" d="M40.5,34.6c0.1,0.1,0.4,0.1,0.3,0.3c-0.2,0.1-0.3,0-0.6,0c0.2,0.1,0.5,0.3,0.8,0l-0.1,0
								c0.2-0.3,1.1-0.6,1.2-0.6C41.5,34.3,41.1,34.4,40.5,34.6z"/>
							<path fill="#FFFFFF" d="M41.8,32.9l-0.3-0.6l-0.6,0.3l0.4,0C41.1,33,41.5,32.9,41.8,32.9z"/>
							<polygon fill="#FFFFFF" points="43.9,29.8 44.7,29.9 43.6,29.6 							"/>
							<polygon fill="#FFFFFF" points="43.9,29.1 44.5,29.1 44.1,28.9 							"/>
							<path fill="#FFFFFF" d="M18.3,28.7l0.2,0.2C18.4,28.8,18.4,28.7,18.3,28.7z"/>
							<path fill="#FFFFFF" d="M18.3,27.5l-0.3,0C18.2,27.5,18.3,27.5,18.3,27.5z"/>
							<path fill="#FFFFFF" d="M30.1,16.5c-0.2-0.6-0.5-1.5-0.5-0.8l0.1,0.7C29.8,16.3,30,16.4,30.1,16.5z"/>
							<path fill="#FFFFFF" d="M17.6,20.7c0.1,0.1,0.1,0.1,0.2,0.2c-0.1-0.2-0.1-0.5-0.2-0.7C17.6,20.4,17.6,20.5,17.6,20.7z"/>
							<path fill="#FFFFFF" d="M19,23.6c0,0-0.1-0.1-0.2-0.2c-0.1-0.1-0.2-0.2-0.2-0.2C18.7,23.3,18.8,23.4,19,23.6z"/>
							<path fill="#FFFFFF" d="M19,35.4l0.7,0.2C19.7,35.3,19.4,35.4,19,35.4z"/>
							<path fill="#FFFFFF" d="M43.6,18.2c0.3-0.6,0.4-1,0.4-1.2C43.6,17.8,43,18.6,43.6,18.2z"/>
							<path fill="#FFFFFF" d="M11,28.2c0.1,0.1,0.3,0.1,0.4,0.1C11.3,28.3,11.1,28.2,11,28.2z"/>
							<path fill="#FFFFFF" d="M43.7,16.3c0,0.1,0,0.1,0,0.2c0.1,0,0.2,0,0.2-0.1c0.1,0.1,0.1,0.3,0.1,0.6c0.2-0.4,0.3-0.8,0.3-0.9
								C44.1,16.1,43.9,16.1,43.7,16.3z"/>
							<path fill="#FFFFFF" d="M30.7,39.3C30.7,39.4,30.8,39.4,30.7,39.3C30.8,39.3,30.8,39.3,30.7,39.3z"/>
							<path fill="#FFFFFF" d="M37.8,46.3c-0.1,0-0.2,0-0.3,0.1C37.5,46.4,37.6,46.4,37.8,46.3z"/>
							<path fill="#FFFFFF" d="M44.2,25.6C44.2,25.9,44.2,25.7,44.2,25.6L44.2,25.6z"/>
							<path fill="#FFFFFF" d="M41.4,26.8c-0.1,0-0.2-0.1-0.3-0.1C41.3,26.8,41.4,26.8,41.4,26.8z"/>
							<path fill="#FFFFFF" d="M37.9,20.6L37.9,20.6C37.9,20.8,37.9,20.7,37.9,20.6z"/>
							<path fill="#FFFFFF" d="M43.8,26.1c0.1-0.1,0.2-0.2,0.2-0.4C44,25.8,43.9,25.9,43.8,26.1z"/>
							<path fill="#FFFFFF" d="M44.2,26c0,0.1,0,0.2-0.1,0.2C44.2,26.3,44.3,26.2,44.2,26z"/>
							<path fill="#FFFFFF" d="M44.1,25.3c0,0.2,0,0.3-0.1,0.4c0-0.1,0.1-0.1,0.1-0.1C44.2,25.6,44.1,25.5,44.1,25.3z"/>
							<path fill="#FFFFFF" d="M18.8,41.2C18.8,41.2,18.8,41.2,18.8,41.2C19,41,18.9,41,18.8,41.2z"/>
							<path fill="#FFFFFF" d="M26,23.7C26,23.7,26,23.7,26,23.7L26,23.7L26,23.7z"/>
							<path fill="#FFFFFF" d="M25.4,24.3c0.2-0.9,0.4-0.8,0.6-0.6l-0.2-2L25.4,24.3z"/>
							<path fill="#FFFFFF" d="M18.5,31.6l0.6-0.4c1,0.5,0.7,0.8,1.5,0.5c-2.2-0.1-0.2-1.5-2.4-1.6l0.5-0.3c0,0.1,0.1,0.1,0.1,0.2
								c1-0.5-1.6-0.4-1.3-1c0.2-0.2,0.5-0.4,0.7-0.2l-0.5-0.5c0-0.1,0.4-0.1,0.4,0L18,27.4l0.1,0c-0.3-0.1-0.9-0.4-1.1-0.5
								c0.3-0.2,0.2,0.1,0.5,0c0,0-0.5-0.4-0.5-0.4c0.3,0,0.6,0,0.8,0c0.2,0.1,0.3,0.3,0.3,0.4c2.2-0.4-0.5-0.4,0.7-0.7l0.3,0.2
								c1.2,0,0.8-0.1,1.6,0.1c-0.2,0-0.7-0.1-1.2-0.2c-0.5-0.1-1-0.1-1.3-0.2c0.2,0,0.2-0.1-0.2-0.3c0.8,0.2,0.6,0.1,0.5-0.1l1,0.4
								c-0.3-0.2-0.8-0.4-1.3-0.6c0.1-0.1,0.9,0.2,1.6,0.6c0.1,0-0.2-0.2-0.6-0.3c-0.4-0.2-0.8-0.3-0.9-0.5c0.4,0,0-0.3-0.6-1.1
								c0.4,0.1,0.6,0.5,0.9,0.7c0,0-0.2-0.2-0.4-0.4c-0.2-0.2-0.4-0.4-0.4-0.4c0,0,0.3,0.2,0.4,0.3c-0.3-0.4-1-0.9-1.3-1.4
								c-0.5-0.5-0.2-0.4,0.1-0.2c0.6,0.4,1.3,1,0.8,0.3c0.3,0.3,0.5,0.6,0.9,1c-0.2-0.4-0.2-0.6-0.3-0.8c-0.1-0.2-0.2-0.4-0.4-1
								c0,0,0.2,0.2,0.4,0.3c0.2,0.2,0.4,0.3,0.4,0.3c-0.7-0.8-1-1.7-0.9-2.4c-0.3-0.4-0.6-0.7-0.8-0.8c0,0,0.4-0.5,0.5-0.5
								c0.2,0.2,0.2,0.5,0.3,0.9c0-0.1,0-0.2,0-0.2c0.4,0.4,0.5,1,0.6,1.5c-0.2-0.2-0.3-0.4-0.5-0.6c0.2,0.6,0.4,1.3,0.8,1.9
								c0-0.1,0-0.2,0-0.3c0.1,0.2,0.1,0.3,0.2,0.4c0.1,0.1,0-0.1-0.1-0.4c0,0,0.2,0.3,0.3,0.6c0.2,0.3,0.3,0.6,0.3,0.6l-0.2-0.5
								c0,0,0.7,0.7,0.7,0.7c-0.1-1.1,0-2.8,1-3.3c-0.2,0.8,0,1.4-0.1,2.4c-0.1-0.5-0.2-0.4-0.3-0.2c-0.1,0.2-0.2,0.5-0.4,0.4
								c0.2,0.1,0.2,0.6,0.2,0.7c0,0,0.3-1,0.4-1c0,0.8,0.1,0.6,0.3,0.9c-0.2-1.6,0.6-1.1,1-1.6c0,0.5-0.1,1.1-0.5,1
								c0.5,1.2,0.6-1.9,1.1-0.9c-0.1,0-0.2-0.1-0.2,0.2c0.2-0.5,0.9-0.1,0.7,0.4l-0.1,0c0.7,0.2,2.1,0,2.2-1.3
								c0,0.2-0.1,1.6-0.1,1.9l1.3-4.6c-0.1,1.2,0.3,3.9-0.3,4.6c0.2,0.2,0.4,0.4,0.7-0.1c-0.1-0.2-0.3-1.7-0.1-1.8
								c0.4,1.3,0.3,0.7,0.8,1.8c-0.2-0.3,0-2.1,0.3-2c0,0.3,0,1.8-0.1,2l0.7-1.8c-0.2,0.3,0,1.5,0.1,2c-0.1-0.4,0.6,0,0.8-0.1
								l-0.3-0.4c0.8,0.3,0.7-2.5,1.5-2.4c-0.1,0.4-0.2,2.3,0.2,2.5c0.2-0.9,0.8-4.4,1.4-5.1l0.1,0.5l0.5-0.6
								c-0.3,1.4-1.2,4.3-1.7,5.4c0.3,0.4,0.1,0.6,0.5,0.6c0.2,0.5-0.2,0.7-0.4,0.8l1,0.3c0-1.1,0.8-1.1,0.7-2l-1.1,1.1
								c0-1.1,0.6-3,1.3-2.9c0.2,0.4-0.1,1.9-0.1,2.3c0.1-0.4,0.7-0.7,0.7-0.4L33.3,24c0.1,0.1,0.2,0.1,0.3,0
								c0.1-0.1,0.1-0.3,0.1-0.4c0.1-0.3,0.2-0.5,0.3,0c0.1,0.1,0,1.4,0.1,0.7c0.2-1.2,0.6-5,1.1-5.9c0,0,0.3,0.3,0.4,0.7
								c0.2,0.4,0.3,0.8,0.3,1.1c0,0.5-0.4,1.1-0.6,1.6c-0.3,0.6-0.5,1.1-0.6,1.5c0.1-0.3,0.3-0.7,0.4-0.8c0,0.3-0.4,0.9-0.1,0.8
								c0.5-1.1,0.4,0.1,0.5-0.9c0.4-0.3,0.2,0.2,0.5,0.2c0.2-0.4,0.6-0.9,1-1.5c0.5-0.5,1-1,1.3-1.2c-0.2,0.3-0.4,0.6-0.5,0.8
								c0.7,0.1,0.6,0.6,1.2,0.6c0,0,0,0,0,0c-0.3,0.3-0.6,0.9-1.1,1.2c0.2-0.1,0.6-0.4,0.6-0.2c-0.9,1.1-0.1-0.2-1.3,1
								c0.6-0.6,0.9-0.4,1.3-0.5c1-0.8,0.2-0.8-0.2-0.6c1.3-1.3,2.8-2.1,3.4-1.5c0.3,0.5-0.9,0.9-0.7,0.9c-0.1,0.7,0.5,0.6,1,0.7
								c0.5,0,0.9,0.1,0.4,1c-0.9,0.8-1.7,0.7-2.3,1c-0.3-0.3,0.5-1,0.5-1.4l-0.4,0.6c-0.3,0-0.5-0.2-0.3-0.5
								c-0.4,0.4-0.4,0.8-0.5,1.3c0,0.5-0.1,1.1-0.4,1.5c0.3,0.1,0.6,0.3,0.9,0.2L40,25.8c0.7-0.4,1,0.4,1.3,0
								c0.5,0.4,1.3,1,0.9,1.4l-1,0.1c0.3,0,0.6-0.3,0.3-0.5c0.4,0.2-1.3,0.8,0,1l0.7-0.3c0.5,0.4,1.5,0.8,1.2,1.2
								c1-0.2-0.1-0.1,1-0.4c-1.4,0.3,0.1-1.1-1.4-0.7c1.3-0.3,0.6-0.5,1.7-1c-0.3,0-0.6,0.3-0.5-0.4c-0.1,0-0.2-0.1-0.3-0.1
								c0,0,0,0,0,0l0,0c0,0-0.1,0,0,0c-0.1,0.2-0.3,0.3-0.5,0.3c-0.7-0.3-0.7-1.1-1.1-1.3c0.2-0.3,0.4,0.1,0.7-0.2
								c0,0-0.1-0.1-0.3-0.2c-0.1-0.1-0.3-0.1-0.3-0.1c0.7-0.2,1.2-1.2,1.6-0.5l0-0.8c0.4-0.6,0.6-1.3,0.3-1.6
								c0.2-0.5-0.8-0.5-0.2-0.5c0,0-0.1-0.2-0.2-0.5c-0.1-0.2-0.2-0.5-0.2-0.5l0.2-0.1c0-0.6-0.2-1-0.4-1.4c-0.2-0.5-0.2-1,0.3-2.1
								c0,0,0-0.1,0-0.2c-0.6,0.2-1.2,0.4-1.7,0.2l0.4-0.6c-0.7,0.2-1.2-0.6-1.9,0c0.3-0.8-0.4-0.9-1.2-0.8
								c-0.8,0.1-1.7,0.3-2.1,0.2l-0.3,0.8c-0.6,0-1.3,0.2-2.1,0.5l0,0.7c-0.3,0.3-0.7,0.2-1.1,0c-0.3-0.2-0.6-0.4-0.9-0.4
								c0-0.3,0.2-0.2,0.3,0c-0.8-1.6-1.6,1.2-2.3,0c-0.2,0.3-0.3,0.2-0.4,0c0,0,0,0,0,0c0,0,0,0-0.1,0c-0.1-0.1-0.2-0.3-0.2-0.4
								c0.1,0.2,0.1,0.3,0.2,0.4c-0.1,0-0.3,0.1-0.5,0.3l-0.1-0.8c0,0,0,0,0,0c-0.2-0.3-0.2,0.4-0.1,0.9c-0.1,0.1-0.2,0.3-0.3,0.5
								c-0.2-1.2-0.5,0.4-0.7-0.9c-0.1,0.6-1,0.5-1.1,1.8c0-0.2-0.1-0.3,0-0.3c-0.2-0.2-0.4-0.3-0.6,0.1l-0.1-1L26.3,19
								c-0.3-0.6-0.4-0.9-0.1-1.7c-0.7,1.2-0.6,0.4-1.2,1.6l0-0.6c-0.2,0-0.6,0.9-0.7,0.3c-0.5-1.2-2.4-0.2-3.6-1.3
								c0.1,0.9,0,0.7-0.2,0.5c-0.3-0.3-0.6-0.6-0.6,0.1c-0.1-0.4-0.4-0.7-0.2-1.1c-0.5,0.2-0.9,0-1.2,0c-0.4-0.1-0.7-0.1-0.8,0.6
								c-0.3-0.4,0-0.6-0.2-0.9c-0.1,0.1-0.2,0.4-0.4,0.1c-0.2-0.3,0-0.4,0.1-0.6c-1.1,0.1-0.6,1.4-0.1,2.7
								c-0.7-0.6-0.9-0.5-0.8,0.3c-0.4-0.4-0.9-0.9-0.4-1c-0.3-0.1-2.4-0.6-1.6,0.4c-0.3-0.3-0.5-0.1-0.5,0
								c-0.7-0.1-0.9-0.2-1.4-0.1l0.3,0.2c0.3,0.4,0.4,0.6,0.3,0.6c0.1,0.2-0.3,0.1-0.2,0.5l-0.1-0.1c-0.4,0.2-0.3,0.4-0.2,0.6
								c0.1,0.2,0.2,0.4-0.3,0.6l0.8,0.5c0.8,0.6,0.6,0.7,0.2,0.7c-0.4,0.1-0.9,0.2-0.6,0.7l0.4,0c0.3,0.3-0.3,0.3-0.9,0.3
								c-0.7,0-1.4,0-1.5,0.2c-0.1,0.1-0.2-0.2-0.3-0.4c-1,0.9,1,0.5,1.2,1.4c-0.5,0-1.4-0.6-1.5,0c-0.2,0.1,0.2,0.7,0.6,1.2
								c0.2,0.3,0.3,0.5,0.4,0.8c0.1,0.2,0,0.5-0.3,0.6c0.4-0.1,0.8-0.2,1.1,0c0.1,0.4-1.6,1.1-0.3,1.4c-0.1,0.1-0.2,0.1-0.3,0.1
								c0.3,0.3,0.6,1,1.3,1.2c-2.6,0.3,1.3,1.9-1.2,1.9l0.1,0.9l-0.2,0c-0.2,0.6,0.4,0.8,1,1c-0.2,0.1-0.4,0-0.5,0
								c-0.5,0.9-0.4,1,0.8,1.7l-0.8,0.1c0.5,0.2-1.2,1.2-0.3,2.1c-0.1,0-0.2,0-0.4-0.1c0.5,0.7-0.1,1.6-0.4,2.5
								c-0.3,0.9-0.4,1.7,1.1,1.3c0,0,0.7,0.5,0.7,0.5c0.1-0.6,0.4-0.7,0.8-0.7c0.3-0.1,0.7-0.1,1-0.4c0.2,0.2-0.9,1.4-1,1l0.1-0.2
								c-1.5,0.7-0.5,1.6-1.6,2.3c0,0.8-0.1,1.7-0.2,2.7c1.2,0.2,2.5,0.6,4,0.6c0,0,0.1-0.3,0.2-0.6c0.1-0.3,0.2-0.6,0.2-0.6
								l0.7,0.1c0.1,0.3-0.1,0.9-0.7,0.9c0,0.7,1.2-0.6,1.3-0.8c0.4,0.2,0.2,0.6-0.1,0.9c-0.3,0.3-0.7,0.5-0.5,0.5l0.5-0.1l-0.1-0.1
								c0.6-0.5,0.7-1,1.4-0.9c0.4,0.2,0.1,0.7,0.2,0.8c0,0.1,0,0.1,0.3,0l1,0.1c0,0-0.1-0.2-0.2-0.5c-0.1-0.2-0.1-0.5-0.1-0.5
								c0.5-0.5,0.9,0,0.5-1c0.1,0.4,0.5,0.6,0.7,0.8c0.3,0.1,0.6,0.2,0.9,0.2c0.6,0,1.2-0.1,1.3,0.1c0.4-0.7,0.8-0.7,1.3-0.6
								c-0.1-0.2-0.2-1.2,0.2-1.1c-0.2,2.1,0.8,0.9,1.1,2.5c-0.3-1,1.2-0.3,0.7-1.7c0.4,0.2,0,0.8,0.3,1.3c0.9-0.8,1.9,0.5,3,0.3
								c0-0.3-0.2-0.7,0.1-1.1l0.6,1.4c0.2-0.1,0.2-1.6,0.6-0.6c-0.1-0.2-0.1-0.6,0-0.7c2.1,1.4,4.3-1.1,6.4,1.5
								c-0.3-0.5-0.1-0.6,0.1-0.6c-0.1-0.1,0-0.7,0-1.1l0.9,1.1c0.2-1.1,1-0.1,1-1.1l-0.3,0.2c0.4-1.2-0.5-2.6-0.5-4.2
								c-0.4,1.4-1.1-2-1.8-0.1c-0.2-0.3,0.1-0.5,0-0.8c-0.2,0.7-0.4,0.8-0.8,0.5l0-0.2c-1.1,0.2-1.6-0.5-2.8-0.9l0.1,0.8
								c-0.3-0.1-0.3-0.3-0.4-0.5c-0.3,1.1,0.7,0.1,0.5,1.3c-0.4-1.5-1.9,0-2.1-1.8c-0.4,0,0.1,0.9-0.3,0.9L31,40l-0.1,0.6
								c-0.3-0.1-0.4-0.7-0.4-1.1c0.1,0,0.2-0.1,0.3-0.1c-0.3-0.6-1,0.2-1.1,0l0.4,0.3c-1.1,0.4-2.5-0.2-3.5,0.8l0.1,0.4
								c-0.8,0.7-0.7-0.4-1.6-0.1l0-0.1c-0.2,0.4-0.4,0.5-0.7,0.5c0.2-0.4-0.4-0.8-0.1-1.3c-0.9,0.7-0.4,0.6-1,1.9l-0.1-0.6
								c-0.2,0.5-0.2,0.8-0.7,1c0.4-0.5-0.3-0.9,0.1-1.6c-0.9-1.3-1.4,1.3-1.8-0.6c-0.4,1.6,0.8,0.9,0.6,1.3
								c0.2,0.5-0.4,1.2-0.6,1.1c-0.3,0-0.3-2.1-0.6-2.1c0,0,0.1-0.1,0.1-0.1c0-0.4-0.4,0.6-0.4-0.1c-0.4,1-0.2-0.1-0.7,1.2l0.5-0.3
								c-0.2,0.2-0.4,0.6-0.7,0.9c-0.3,0.3-0.6,0.5-0.7,0.2c0.2-0.3,0.5-0.6,0.7-0.8c0.1-0.4-0.4,0.2-0.3-0.1
								c0.4-0.6,0.5-0.7,0.7-0.7c0.1,0,0.3,0,0.6-0.5c0.1-0.5-0.7,0.9-0.1-0.5c-0.4,0.9-0.5,0.8-0.6,0.7c-0.1-0.1,0-0.3-0.6,0.4
								l0.5-0.8c-0.1,0.1-0.4,0.5-0.5,0.5c0,0,0.2-0.2,0.4-0.5c0.2-0.2,0.4-0.5,0.4-0.5c-0.4,0.4-0.3,0.2-0.2,0
								c0.1-0.2,0.3-0.5,0-0.3c0.3,0-0.7,0.9-1,1.5c-1.2,0.9,0.7-1.3,0.9-1.6c0-0.1,0-0.1,0-0.1c0.1,0-0.1,0.2-0.3,0.4
								c-0.1,0.2-0.3,0.3-0.5,0.5l0,0c0.2-0.2,0.4-0.6,0.8-1c-0.2-0.1-0.8,0.7-1.2,1c0.9-0.9-0.4,0.2-0.7,0.2l0.8-0.6
								c0.5-0.7-1.6,1-1,0.1c0,0,0.3-0.1,0.5-0.2c0.3-0.1,0.5-0.3,0.5-0.3l-0.3,0l0.9-0.5c-0.7,0.2-0.5,0-0.2-0.2
								c-0.5,0.3-1.4,0.6-1.4,0.3c0.5-0.3,0.7-0.2,0.6-0.4c0.5-0.1,1.1-0.2,0.4,0.1c0.3-0.1,0.5-0.1,0.7-0.2
								c0.5-0.3,0.1-0.2,0.1-0.3c0,0-0.1,0.1-0.2,0.1c0,0-0.3,0-0.5,0c-0.3,0-0.5-0.1-0.5-0.1c0.3-0.1,0.5-0.1,0.7-0.1
								c-0.1,0-0.4-0.1-0.5-0.2c0.6,0,1.3-0.1,1.6,0c0,0-0.7-0.1-0.7-0.2c0.3,0.1,0.7-0.4,1-0.2c0.4-0.4-1.2-1-0.7-1.6
								c-0.1,0-0.2-0.1-0.3-0.2c0.1-0.5,0.9-1,0.1-1.6l1.1-0.3c-0.3-0.5-1.4,0.5-1.8-0.3c-0.4-0.6,1-0.2,1.3-0.4
								c-0.6-0.3-1.7-0.8-0.8-1.3C18.6,31.3,18.4,31.5,18.5,31.6z M18,26.2c0.2,0.1,0.7,0.2,0.2,0.2C17.3,26.3,17.8,26.3,18,26.2z
								 M19,22.2c0,0.3-0.1,0.1-0.3-0.2C18.7,21.9,18.8,22,19,22.2z M43.5,22.9C43.5,22.9,43.5,22.9,43.5,22.9
								C43.8,22.4,43.7,22.6,43.5,22.9z M43.2,23.9c0.1,0.1,0.2,0,0.3-0.1c-0.2,0-0.2-0.2-0.2-0.4C43.2,23.5,43,23.7,43.2,23.9z
								 M18.9,46.4l-0.1-0.2C19.2,46,19,46.2,18.9,46.4z"/>
							<path fill="#FFFFFF" d="M18.8,23.2c-0.1-0.1-0.2-0.3-0.3-0.4C18.6,22.9,18.7,23.1,18.8,23.2z"/>
							<path fill="#FFFFFF" d="M18.9,35.3C18.9,35.3,18.9,35.3,18.9,35.3c0,0,0.1,0,0.1,0L18.9,35.3z"/>
							<path fill="#FFFFFF" d="M34.7,23.7c0-0.1,0-0.3,0-0.4C34.7,23.5,34.7,23.6,34.7,23.7z"/>
							<path fill="#FFFFFF" d="M44.5,27.7l-0.2-0.3c0,0.2-0.1,0.2-0.3,0.3C44.2,27.7,44.5,27.6,44.5,27.7z"/>
							<path fill="#FFFFFF" d="M39.7,30.7c0.1,0,0,0.1,0.1,0.2l0.4,0C40.2,30.6,39.9,30.5,39.7,30.7z"/>
							<path fill="#FFFFFF" d="M42,28c-0.6,0-0.4,0.2-0.3,0.5c0,0,0,0,0,0C42.5,28.5,42.2,28.3,42,28z"/>
							<path fill="#FFFFFF" d="M41.7,28.6c0,0.1,0,0.1,0,0.2C42,28.8,41.8,28.7,41.7,28.6z"/>
							<path fill="#FFFFFF" d="M43.6,24.9c-0.2,0.2,0.8,0,0.6,0.1c0.4,0,0.2-0.3-0.1-0.4C43.8,24.4,43.4,24.4,43.6,24.9z"/>
							<polygon fill="#FFFFFF" points="39.8,28.2 40.6,28.1 40,28 							"/>
							<path fill="#FFFFFF" d="M40.4,26.3l-0.2,0.4c0.1,0,0.2,0,0.3,0.1C40.5,26.6,40.6,26.3,40.4,26.3z"/>
							<path fill="#FFFFFF" d="M40.5,26.8c0,0.1,0,0.2,0.1,0.3C40.6,27.1,40.6,26.9,40.5,26.8z"/>
							<polygon fill="#FFFFFF" points="39.6,27.7 39.7,27.6 39.8,27.3 							"/>
							<path fill="#FFFFFF" d="M40.6,21.7l-0.2-0.3c-0.3,0.2-0.4,0.4-0.3,0.5C40.2,21.8,40.3,21.9,40.6,21.7z"/>
							<path fill="#FFFFFF" d="M38.4,24.2c0.2-0.2,0.3-0.3,0.6-0.5l-1,0.5L38.4,24.2z"/>
							<path fill="#FFFFFF" d="M38.1,23.5c-0.3,0.2-0.8,0.2-0.7,0.5C37.7,23.8,37.9,23.9,38.1,23.5z"/>
							<polygon fill="#FFFFFF" points="35.1,20.9 35.2,20.9 35.7,19.3 							"/>
							<path fill="#FFFFFF" d="M29.7,24.8c0.5,0.4,0.1-1,0.6-0.5c0.1-0.4-0.4-0.4-0.2-0.7C29.7,24,29.6,23.8,29.7,24.8z"/>
							<path fill="#FFFFFF" d="M30,23.6c0-0.1,0.1-0.1,0.2-0.2C30.1,23.4,30,23.5,30,23.6z"/>
							<polygon fill="#FFFFFF" points="38.9,47.2 39.3,47.5 39,47 							"/>
							<path fill="#FFFFFF" d="M39.5,46l0.1,1l0.2-0.9C39.7,46.1,39.6,46.2,39.5,46z"/>
							<path fill="#FFFFFF" d="M20.1,26.5l-0.2-0.1c-0.3-0.1-0.3-0.1-0.3-0.1c0,0,0.1,0,0.3,0.1C19.9,26.5,20.1,26.5,20.1,26.5z"/>
							<polygon fill="#FFFFFF" points="19.3,29.1 19.3,29 18.4,29.2 							"/>
							<path fill="#FFFFFF" d="M20.5,32.7c0-0.1-0.2-0.3-0.1-0.5C20.6,32.6,19.3,32.8,20.5,32.7z"/>
						</g>
					</g>
				</g>
			</g>
		</g>
	</g>
</g>
</svg>
