<?xml version="1.0" encoding="utf-8"?>
<!-- Generator: Adobe Illustrator 19.2.1, SVG Export Plug-In . SVG Version: 6.00 Build 0)  -->
<!DOCTYPE svg PUBLIC "-//W3C//DTD SVG 1.1//EN" "http://www.w3.org/Graphics/SVG/1.1/DTD/svg11.dtd">
<svg version="1.1" xmlns="http://www.w3.org/2000/svg" xmlns:xlink="http://www.w3.org/1999/xlink" x="0px" y="0px"
	 viewBox="0 0 55.6 53.7" enable-background="new 0 0 55.6 53.7" xml:space="preserve">
<g id="Layer_1">
</g>
<g id="Isolation_Mode">
	<g>
		<circle fill="none" stroke="#FCEE23" stroke-width="1.2706" stroke-miterlimit="10" cx="27.8" cy="26.8" r="26.2"/>
		<g>
			<g>
				<path fill="#D1AF8A" d="M53.7,46.1H1.9V21.3c0-7.6,6.2-13.7,13.7-13.7h24.3c7.6,0,13.7,6.2,13.7,13.7V46.1z"/>
				<path fill="#FBB041" d="M53.7,26.9c0-1.3-5.8-2.9-6.8-3.2c-3.5-0.9-7.3-0.8-10.7,0.4c-3,1.1-6,3-9.2,2.6
					c-2.3-0.2-4.4-1.6-6.5-2.5c-4-1.6-7.8-1.3-11.9-0.2c-1.2,0.3-6.6,1.3-6.6,2.9v-5.6c0-7.6,6.2-13.7,13.7-13.7h24.3
					c7.6,0,13.7,6.2,13.7,13.7C53.7,21.3,53.7,26.9,53.7,26.9z"/>
				<path fill="#C3996C" d="M17.5,24.3c1.2,2.2,2.3,5.1,1.2,7.6c-0.5,1.2-1.6,2.1-2.9,2.3c-1.1,0.1-2.2-0.4-3.1-1
					c-2.6-1.7-4.5-4.4-5.4-7.4c-0.6-2.1-0.1-4.2,1.8-5.4C12.4,18.2,15.6,20.9,17.5,24.3z"/>
				<path fill="#C3996C" d="M44.9,30c-1.9,1.7-4.5,3.3-7.2,2.7c-1.3-0.3-2.4-1.2-2.8-2.4c-0.3-1.1,0-2.2,0.4-3.3
					c1.2-2.9,3.4-5.4,6.2-6.8c2-1,4.1-1,5.7,0.7C49.8,23.7,47.8,27.5,44.9,30z"/>
				<path fill="#C3996C" d="M30.4,29.9c-1.5,1.3-3.6,2.6-5.7,2.1c-1-0.2-1.9-0.9-2.2-1.9c-0.3-0.8,0-1.8,0.3-2.6
					c0.9-2.3,2.7-4.3,4.9-5.4c1.6-0.8,3.2-0.8,4.5,0.5C34.3,24.9,32.7,27.9,30.4,29.9z"/>
				<path fill="#C3996C" d="M28,40.7c-2-0.4-4.2-1.3-5.1-3.2c-0.4-0.9-0.4-2.1,0.2-2.9c0.5-0.7,1.4-1.1,2.2-1.3
					c2.4-0.7,5-0.4,7.3,0.6c1.6,0.8,2.6,2.1,2.3,3.9C34.3,40.7,31,41.3,28,40.7z"/>
			</g>
			<path fill="none" stroke="#603A17" stroke-width="3.8118" stroke-miterlimit="10" d="M53.7,46.1H1.9V21.3
				c0-7.6,6.2-13.7,13.7-13.7h24.3c7.6,0,13.7,6.2,13.7,13.7V46.1z"/>
		</g>
	</g>
</g>
</svg>
