<?xml version="1.0" encoding="utf-8"?>
<!-- Generator: Adobe Illustrator 19.2.1, SVG Export Plug-In . SVG Version: 6.00 Build 0)  -->
<!DOCTYPE svg PUBLIC "-//W3C//DTD SVG 1.1//EN" "http://www.w3.org/Graphics/SVG/1.1/DTD/svg11.dtd">
<svg version="1.1" xmlns="http://www.w3.org/2000/svg" xmlns:xlink="http://www.w3.org/1999/xlink" x="0px" y="0px"
	 viewBox="0 0 58.7 53.7" enable-background="new 0 0 58.7 53.7" xml:space="preserve">
<g id="Layer_1">
</g>
<g id="Isolation_Mode">
	<g>
		<circle fill="none" stroke="#FCEE23" stroke-width="1.2706" stroke-miterlimit="10" cx="28.5" cy="26.8" r="26.2"/>
		<g>
			
				<ellipse transform="matrix(5.325422e-02 -0.9986 0.9986 5.325422e-02 -3.4538 55.1839)" fill="#603A17" cx="27.4" cy="29.4" rx="6.2" ry="15.3"/>
			<path fill="#3B2717" d="M12.3,29.8l1.6,5.9c3,7,21.6,8.2,25.9,1.1c0.2-0.4,2.6-5.7,2.6-5.7C36.7,38.9,14.9,35.3,12.3,29.8z"/>
		</g>
		<g>
			
				<ellipse transform="matrix(0.9221 -0.3869 0.3869 0.9221 -6.8942 7.1546)" fill="#603A17" cx="14.3" cy="20.7" rx="15.3" ry="6.2"/>
			<path fill="#3B2717" d="M0.9,27.6l4,4.6c5.8,5,23-2.1,23.8-10.2c0-0.4-0.1-6.2-0.1-6.2C26.8,25.2,5.6,31.5,0.9,27.6z"/>
		</g>
		<g>
			
				<ellipse transform="matrix(0.6037 -0.7972 0.7972 0.6037 0.2899 42.4775)" fill="#603A17" cx="42.9" cy="20.9" rx="7.7" ry="19"/>
			<path fill="#3B2717" d="M27.1,10.9l-2.4,7.2c-1.8,9.4,16.6,23.4,25.8,19.2c0.5-0.2,6.6-4,6.6-4C45.9,37.2,25.9,18.3,27.1,10.9z"
				/>
		</g>
	</g>
</g>
</svg>
