<?xml version="1.0" encoding="utf-8"?>
<!-- Generator: Adobe Illustrator 19.2.1, SVG Export Plug-In . SVG Version: 6.00 Build 0)  -->
<!DOCTYPE svg PUBLIC "-//W3C//DTD SVG 1.1//EN" "http://www.w3.org/Graphics/SVG/1.1/DTD/svg11.dtd">
<svg version="1.1" xmlns="http://www.w3.org/2000/svg" xmlns:xlink="http://www.w3.org/1999/xlink" x="0px" y="0px"
	 viewBox="0 0 55.2 53.7" enable-background="new 0 0 55.2 53.7" xml:space="preserve">
<g id="Layer_1">
</g>
<g id="Isolation_Mode">
	<g>
		<path fill="#29AAE1" d="M7,19.1c-1.2-0.2-2.6,0.1-3.2,1.1S3,22.7,3.1,23.9c0,0.4,0.1,0.9,0.3,1.2c0.3,0.5,1,0.7,1.6,0.9
			c1.8,0.5,4,0.7,5.4-0.5c1-0.9,1.3-2.5,0.7-3.7S8.3,19.4,7,19.1z"/>
		<path fill="#29AAE1" d="M33.5,20.7c-1.4-0.2-2.8,0-3.5,0.9c-0.7,0.9-0.8,2-0.7,3.1c0,0.4,0.1,0.7,0.4,1c0.4,0.4,1.1,0.6,1.8,0.8
			c2,0.4,4.4,0.6,5.9-0.4c1.1-0.7,1.4-2.1,0.8-3.1C37.4,22,34.9,20.9,33.5,20.7z"/>
		<path fill="#29AAE1" d="M42.6,13c-1.4-0.2-2.8,0-3.5,0.9c-0.7,0.9-0.8,2-0.7,3.1c0,0.4,0.1,0.7,0.4,1c0.4,0.4,1.1,0.6,1.8,0.8
			c2,0.4,4.4,0.6,5.9-0.4c1.1-0.7,1.4-2.1,0.8-3.1C46.6,14.2,44,13.2,42.6,13z"/>
		<path fill="#29AAE1" d="M47.9,32.6c-0.8-1.1-1.9-2-3.1-1.9c-1.1,0.1-2,0.8-2.7,1.6c-0.2,0.3-0.5,0.6-0.5,1
			c-0.1,0.6,0.3,1.2,0.6,1.8c1.1,1.7,2.5,3.6,4.3,4c1.3,0.3,2.5-0.4,2.8-1.5C49.7,36.4,48.8,33.8,47.9,32.6z"/>
		<path fill="#29AAE1" d="M25.5,6.3c-1-0.2-2.1,0-2.7,0.9s-0.6,2-0.5,3.1c0,0.4,0.1,0.7,0.3,1c0.3,0.4,0.8,0.6,1.3,0.8
			c1.5,0.4,3.3,0.6,4.5-0.4c0.8-0.7,1.1-2.1,0.6-3.1S26.6,6.5,25.5,6.3z"/>
		<path fill="#29AAE1" d="M33.3,36.1c-1-0.2-2.1,0-2.7,0.9c-0.6,0.9-0.6,2-0.5,3.1c0,0.4,0.1,0.7,0.3,1c0.3,0.4,0.8,0.6,1.3,0.8
			c1.5,0.4,3.3,0.6,4.5-0.4c0.8-0.7,1.1-2.1,0.6-3.1C36.3,37.4,34.4,36.3,33.3,36.1z"/>
		<path fill="#29AAE1" d="M18,37.6c-0.6-0.1-1.3,0-1.6,0.6C16,38.7,16,39.4,16,40.1c0,0.2,0,0.4,0.2,0.6c0.2,0.3,0.5,0.4,0.8,0.5
			c0.9,0.2,2,0.4,2.7-0.3c0.5-0.5,0.7-1.2,0.4-1.9S18.7,37.7,18,37.6z"/>
		<path fill="#29AAE1" d="M11.4,22.2c-0.6-0.1-1.3,0-1.6,0.6c-0.3,0.5-0.4,1.2-0.3,1.9c0,0.2,0,0.4,0.2,0.6c0.2,0.3,0.5,0.4,0.8,0.5
			c0.9,0.2,2,0.4,2.7-0.3c0.5-0.5,0.7-1.2,0.4-1.9C13.2,22.9,12,22.3,11.4,22.2z"/>
		<path fill="#29AAE1" d="M22.1,46.7c-0.6-0.1-1.3,0-1.6,0.6c-0.3,0.5-0.4,1.2-0.3,1.9c0,0.2,0,0.4,0.2,0.6c0.2,0.3,0.5,0.4,0.8,0.5
			c0.9,0.2,2,0.4,2.7-0.3c0.5-0.5,0.7-1.2,0.4-1.9C23.9,47.5,22.7,46.8,22.1,46.7z"/>
		<path fill="#29AAE1" d="M22,16c-1-0.2-2.1,0-2.7,0.9c-0.6,0.9-0.6,2-0.5,3.1c0,0.4,0.1,0.7,0.3,1c0.3,0.4,0.8,0.6,1.3,0.8
			c1.5,0.4,3.3,0.6,4.5-0.4c0.8-0.7,1.1-2.1,0.6-3.1C25,17.3,23.1,16.2,22,16z"/>
		<circle fill="none" stroke="#FCEE23" stroke-width="1.2706" stroke-miterlimit="10" cx="26.8" cy="26.8" r="26.2"/>
		<path fill="#F15B2B" d="M6.5,36.9c-1.2-0.2-2.6,0.1-3.2,1.1c-0.7,1.1-0.7,2.4-0.6,3.7c0,0.4,0.1,0.9,0.3,1.2
			c0.3,0.5,1,0.7,1.6,0.9c1.8,0.5,4,0.7,5.4-0.5c1-0.9,1.3-2.5,0.7-3.7C10.1,38.5,7.8,37.2,6.5,36.9z"/>
		<path fill="#F15B2B" d="M23,24.5c-1.4-0.2-2.8,0-3.5,0.9c-0.7,0.9-0.8,2-0.7,3.1c0,0.4,0.1,0.7,0.4,1c0.4,0.4,1.1,0.6,1.8,0.8
			c2,0.4,4.4,0.6,5.9-0.4c1.1-0.7,1.4-2.1,0.8-3.1S24.4,24.7,23,24.5z"/>
		<path fill="#F15B2B" d="M50.3,13.5c-1.4-0.2-2.8,0-3.5,0.9c-0.7,0.9-0.8,2-0.7,3.1c0,0.4,0.1,0.7,0.4,1c0.4,0.4,1.1,0.6,1.8,0.8
			c2,0.4,4.4,0.6,5.9-0.4c1.1-0.7,1.4-2.1,0.8-3.1C54.3,14.8,51.7,13.7,50.3,13.5z"/>
		<path fill="#F15B2B" d="M40.1,2.2c-0.8-1.1-1.9-2-3.1-1.9c-1.1,0.1-2,0.8-2.7,1.6c-0.2,0.3-0.5,0.6-0.5,1
			c-0.1,0.6,0.3,1.2,0.6,1.8c1.1,1.7,2.5,3.6,4.3,4c1.3,0.3,2.5-0.4,2.8-1.5C41.9,6,40.9,3.4,40.1,2.2z"/>
		<path fill="#F15B2B" d="M15,8.8c-1-0.2-2.1,0-2.7,0.9c-0.6,0.9-0.6,2-0.5,3.1c0,0.4,0.1,0.7,0.3,1c0.3,0.4,0.8,0.6,1.3,0.8
			c1.5,0.4,3.3,0.6,4.5-0.4c0.8-0.7,1.1-2.1,0.6-3.1S16.1,9,15,8.8z"/>
		<path fill="#F15B2B" d="M37,39c-1-0.2-2.1,0-2.7,0.9s-0.6,2-0.5,3.1c0,0.4,0.1,0.7,0.3,1c0.3,0.4,0.8,0.6,1.3,0.8
			c1.5,0.4,3.3,0.6,4.5-0.4c0.8-0.7,1.1-2.1,0.6-3.1C40.1,40.3,38.1,39.2,37,39z"/>
		<path fill="#F15B2B" d="M28.4,34.7c-0.6-0.1-1.3,0-1.6,0.6c-0.3,0.5-0.4,1.2-0.3,1.9c0,0.2,0,0.4,0.2,0.6c0.2,0.3,0.5,0.4,0.8,0.5
			c0.9,0.2,2,0.4,2.7-0.3c0.5-0.5,0.7-1.2,0.4-1.9S29.1,34.8,28.4,34.7z"/>
		<path fill="#F15B2B" d="M13.8,25.3c-0.6-0.1-1.3,0-1.6,0.6c-0.3,0.5-0.4,1.2-0.3,1.9c0,0.2,0,0.4,0.2,0.6c0.2,0.3,0.5,0.4,0.8,0.5
			c0.9,0.2,2,0.4,2.7-0.3c0.5-0.5,0.7-1.2,0.4-1.9C15.6,26,14.4,25.4,13.8,25.3z"/>
		<path fill="#F15B2B" d="M31.2,46.7c-0.6-0.1-1.3,0-1.6,0.6c-0.3,0.5-0.4,1.2-0.3,1.9c0,0.2,0,0.4,0.2,0.6c0.2,0.3,0.5,0.4,0.8,0.5
			c0.9,0.2,2,0.4,2.7-0.3c0.5-0.5,0.7-1.2,0.4-1.9S31.9,46.8,31.2,46.7z"/>
		<path fill="#F15B2B" d="M42.3,26c-1-0.2-2.1,0-2.7,0.9c-0.6,0.9-0.6,2-0.5,3.1c0,0.4,0.1,0.7,0.3,1c0.3,0.4,0.8,0.6,1.3,0.8
			c1.5,0.4,3.3,0.6,4.5-0.4c0.8-0.7,1.1-2.1,0.6-3.1C45.3,27.2,43.4,26.2,42.3,26z"/>
	</g>
</g>
</svg>
