<?xml version="1.0" encoding="utf-8"?>
<!-- Generator: Adobe Illustrator 19.2.1, SVG Export Plug-In . SVG Version: 6.00 Build 0)  -->
<!DOCTYPE svg PUBLIC "-//W3C//DTD SVG 1.1//EN" "http://www.w3.org/Graphics/SVG/1.1/DTD/svg11.dtd">
<svg version="1.1" xmlns="http://www.w3.org/2000/svg" xmlns:xlink="http://www.w3.org/1999/xlink" x="0px" y="0px"
	 viewBox="0 0 59.4 53.7" enable-background="new 0 0 59.4 53.7" xml:space="preserve">
<g id="Layer_1">
</g>
<g id="Isolation_Mode">
	<g>
		<circle fill="none" stroke="#FCEE23" stroke-width="1.2706" stroke-miterlimit="10" cx="28.8" cy="26.8" r="26.2"/>
		<g>
			<g>
				
					<ellipse transform="matrix(0.2041 -0.979 0.979 0.2041 2.6654 42.1039)" fill="#922A8E" cx="27.2" cy="19.4" rx="10.2" ry="14.8"/>
				<g>
					<path fill="#FFFFFF" stroke="#FFFFFF" stroke-width="0.3156" stroke-miterlimit="10" d="M22.6,18.2c-0.1,0.4-0.2,0.7-0.1,0.9
						c0.1,0.4,0.5,0.8,1.1,1.1c0.4,0.2,0.7,0.3,1,0.3c0.5,0.1,0.9-0.1,1.1-0.5c0.1-0.2,0.1-0.5,0-0.7c-0.2-0.2-0.4-0.5-0.9-0.9
						l-0.7-0.6c-0.7-0.6-1.2-1.1-1.4-1.4c-0.3-0.6-0.3-1.3,0.1-2c0.3-0.7,0.9-1.1,1.6-1.3c0.7-0.2,1.6-0.1,2.5,0.4
						c0.8,0.4,1.4,1,1.7,1.7c0.4,0.7,0.3,1.5,0,2.3l-1.5-0.8c0.2-0.5,0.2-0.9-0.1-1.3c-0.2-0.3-0.5-0.5-0.8-0.7
						c-0.4-0.2-0.8-0.3-1.1-0.3c-0.3,0-0.6,0.2-0.7,0.5c-0.1,0.3-0.1,0.5,0.1,0.8c0.1,0.2,0.4,0.4,0.8,0.8l1.2,1
						c0.5,0.4,0.9,0.8,1,1.2c0.3,0.6,0.2,1.2-0.1,1.9c-0.3,0.7-0.9,1.1-1.7,1.3c-0.8,0.2-1.6,0-2.6-0.5c-1-0.5-1.7-1.1-2-1.9
						c-0.3-0.7-0.3-1.5,0.1-2.3L22.6,18.2z"/>
				</g>
			</g>
			<g>
				<ellipse fill="#EC2227" cx="17" cy="37" rx="17" ry="11.7"/>
				<g>
					<path fill="#FFFFFF" stroke="#FFFFFF" stroke-width="0.3156" stroke-miterlimit="10" d="M12.6,36.9c0,0.5,0,0.9,0.2,1.2
						c0.3,0.5,0.9,0.9,1.7,1.1c0.5,0.1,1,0.2,1.3,0.1c0.7-0.1,1.1-0.4,1.2-1c0.1-0.4,0-0.7-0.3-0.9c-0.3-0.3-0.7-0.5-1.4-0.8
						L14.3,36c-1.1-0.5-1.8-1-2.1-1.3c-0.6-0.7-0.8-1.5-0.6-2.5c0.2-1,0.7-1.7,1.6-2.1c0.8-0.5,1.9-0.6,3.3-0.2
						c1.1,0.3,2,0.8,2.7,1.5c0.7,0.8,0.9,1.7,0.7,2.9l-2.1-0.5c0.1-0.6-0.1-1.2-0.5-1.6c-0.3-0.3-0.7-0.4-1.3-0.6
						c-0.6-0.1-1.1-0.1-1.5,0c-0.4,0.2-0.7,0.4-0.7,0.8c-0.1,0.4,0,0.7,0.3,1c0.2,0.2,0.6,0.4,1.3,0.8l1.8,0.9
						c0.8,0.4,1.3,0.8,1.7,1.2c0.5,0.6,0.7,1.4,0.5,2.4c-0.2,1-0.8,1.7-1.7,2.2c-0.9,0.5-2,0.6-3.4,0.2c-1.4-0.3-2.4-0.9-3.1-1.7
						c-0.7-0.8-0.9-1.8-0.6-2.9L12.6,36.9z"/>
				</g>
			</g>
			<g>
				
					<ellipse transform="matrix(0.8266 -0.5628 0.5628 0.8266 -5.0804 30.6759)" fill="#FCEE23" cx="47.2" cy="23.6" rx="13.4" ry="9.2"/>
				<g>
					<path fill="#FFFFFF" stroke="#FFFFFF" stroke-width="0.3156" stroke-miterlimit="10" d="M50.4,21.2c-0.2-0.3-0.4-0.6-0.6-0.7
						c-0.4-0.2-0.9-0.2-1.6,0c-0.4,0.1-0.7,0.3-0.9,0.5c-0.4,0.3-0.5,0.7-0.4,1.2c0.1,0.3,0.3,0.4,0.6,0.5c0.3,0.1,0.7,0.1,1.2,0
						l0.9-0.1c0.9-0.1,1.6-0.1,2,0c0.7,0.2,1.1,0.7,1.4,1.4c0.3,0.7,0.2,1.4-0.2,2.1c-0.4,0.7-1,1.2-2.1,1.5
						c-0.8,0.3-1.6,0.3-2.4,0.1c-0.8-0.2-1.3-0.8-1.6-1.6l1.6-0.6c0.2,0.5,0.5,0.7,1,0.8c0.3,0,0.7,0,1.1-0.2c0.4-0.2,0.8-0.4,1-0.6
						c0.2-0.3,0.2-0.6,0.1-0.9c-0.1-0.3-0.3-0.5-0.6-0.5c-0.2,0-0.6,0-1.2,0l-1.5,0.2c-0.7,0.1-1.2,0-1.6-0.1
						c-0.6-0.2-1-0.7-1.3-1.4c-0.3-0.7-0.2-1.4,0.2-2.1c0.4-0.7,1.1-1.2,2.1-1.6c1-0.4,2-0.4,2.7-0.2c0.8,0.3,1.3,0.8,1.6,1.6
						L50.4,21.2z"/>
				</g>
			</g>
		</g>
	</g>
</g>
</svg>
