<?xml version="1.0" encoding="utf-8"?>
<!-- Generator: Adobe Illustrator 19.2.1, SVG Export Plug-In . SVG Version: 6.00 Build 0)  -->
<!DOCTYPE svg PUBLIC "-//W3C//DTD SVG 1.1//EN" "http://www.w3.org/Graphics/SVG/1.1/DTD/svg11.dtd">
<svg version="1.1" xmlns="http://www.w3.org/2000/svg" xmlns:xlink="http://www.w3.org/1999/xlink" x="0px" y="0px"
	 viewBox="0 0 53.7 54.2" enable-background="new 0 0 53.7 54.2" xml:space="preserve">
<g id="Layer_1">
</g>
<g id="Isolation_Mode">
	<g>
		<circle fill="none" stroke="#FCEE23" stroke-width="1.2706" stroke-miterlimit="10" cx="26.8" cy="27.3" r="26.2"/>
		<path fill="#E7DB19" d="M23.9,30.3c3.2-3.2,1.8-5.6-1-7s-3.5-3.8-4.6-5.3c-1.1-1.4-4.4-1.8-5.1-3c-0.7-1.2-1.4-3.9-3.4-5.9
			s-2.8-1-6.1,2.3s-5.4,5.5,0.8,8.2c4.2,1.9,3.2,3.6,6.6,6.1s4.4,2.7,7.2,5.2S21.4,32.9,23.9,30.3z"/>
		<g>
			<path fill="#EC2227" d="M22.6,20.9c-1.2,1.4-1.3,3.3-0.2,4.4l3.5,3.5c1.1,1.1,2.9,1,4.4-0.2l4.5-3.7l-8.5-8.5L22.6,20.9z"/>
			<path fill="#EC2227" d="M49.6,12.8c1.7-1.4,2.1-3.8,0.8-5l-7-7c-1.3-1.3-3.6-0.9-5,0.9L35,5.7l10.5,10.5L49.6,12.8z"/>
			<polygon fill="#EC2227" points="35,5.7 25.5,17.4 33.8,25.7 45.5,16.2 			"/>
		</g>
		<circle fill="#BE202E" cx="16.8" cy="39.2" r="11.8"/>
		<ellipse fill="#E7DB19" cx="41.2" cy="28.7" rx="9.3" ry="6.9"/>
	</g>
</g>
</svg>
