<?xml version="1.0" encoding="utf-8"?>
<!-- Generator: Adobe Illustrator 19.2.1, SVG Export Plug-In . SVG Version: 6.00 Build 0)  -->
<!DOCTYPE svg PUBLIC "-//W3C//DTD SVG 1.1//EN" "http://www.w3.org/Graphics/SVG/1.1/DTD/svg11.dtd">
<svg version="1.1" xmlns="http://www.w3.org/2000/svg" xmlns:xlink="http://www.w3.org/1999/xlink" x="0px" y="0px"
	 viewBox="0 0 56.7 61" enable-background="new 0 0 56.7 61" xml:space="preserve">
<g id="Layer_1">
</g>
<g id="Isolation_Mode">
	<g>
		<circle fill="none" stroke="#FCEE23" stroke-width="1.2706" stroke-miterlimit="10" cx="29.9" cy="31.8" r="26.2"/>
		<g>
			<path fill="#FFFFFF" d="M22.7,27.8c-0.6,1.9,0.3,3.9,2.1,4.7l5.9,2.7c1.8,0.8,3.9,0.2,4.9-1.5l3.2-5.2L24.5,22L22.7,27.8z"/>
			<path fill="#FCEE23" d="M49.4,11.3c1.2-2,0.4-4.6-1.7-5.6L35.8,0.4c-2.1-1-4.6,0.1-5.3,2.4l-1.7,5.4l17.6,8L49.4,11.3z"/>
			<polygon fill="#EF4237" points="28.8,8.1 24.5,22 38.8,28.5 46.4,16.1 			"/>
		</g>
		<g>
			<path fill="#FFFFFF" d="M17.9,48.6c-1.4,1.8-1.2,4.3,0.4,5.9l5.2,5.2c1.6,1.6,4.1,1.7,5.9,0.4l5.6-4.3L22.2,43L17.9,48.6z"/>
			<path fill="#FCEE23" d="M53.2,41.5c2.1-1.7,2.3-4.8,0.4-6.7L43.1,24.3c-1.9-1.9-5-1.7-6.7,0.4l-3.9,5.1l15.7,15.6L53.2,41.5z"/>
			<polygon fill="#EF4237" points="32.4,29.8 21.2,44.3 33.7,56.7 48.1,45.5 			"/>
		</g>
		<g>
			<path fill="#FFFFFF" d="M22.6,40.1c1.6,1.2,3.8,1,5.1-0.4l4.5-4.6c1.4-1.4,1.5-3.6,0.2-5.2l-3.9-4.8L17.7,36.4L22.6,40.1z"/>
			<path fill="#FCEE23" d="M16,9.4c-1.5-1.8-4.2-1.9-5.8-0.3l-9,9.3c-1.6,1.7-1.4,4.4,0.5,5.8l4.5,3.4l13.4-13.9L16,9.4z"/>
			<polygon fill="#EF4237" points="6.1,27.7 18.8,37.2 29.5,26.2 19.5,13.8 			"/>
		</g>
	</g>
</g>
</svg>
