<?xml version="1.0" encoding="utf-8"?>
<!-- Generator: Adobe Illustrator 19.2.1, SVG Export Plug-In . SVG Version: 6.00 Build 0)  -->
<!DOCTYPE svg PUBLIC "-//W3C//DTD SVG 1.1//EN" "http://www.w3.org/Graphics/SVG/1.1/DTD/svg11.dtd">
<svg version="1.1" xmlns="http://www.w3.org/2000/svg" xmlns:xlink="http://www.w3.org/1999/xlink" x="0px" y="0px"
	 viewBox="0 0 62.9 53.7" enable-background="new 0 0 62.9 53.7" xml:space="preserve">
<g id="Layer_1">
</g>
<g id="Isolation_Mode">
	<g>
		<g>
			<circle fill="none" stroke="#FCEE23" stroke-width="1.2706" stroke-miterlimit="10" cx="34.4" cy="26.8" r="26.2"/>
			<g>
				<path fill="#FBB041" d="M8,33.8c16,6.3,29.2,5.1,38.1,3.9C51.4,37,61,16.4,33.9,24c-6.4,1.8-14.6,0.3-18.4-4.3
					C7.9,10.7-10.5,26.4,8,33.8z"/>
				<path fill="#FBB041" d="M13.3,14.1c11.3,4.5,20.7,3.6,26.9,2.8c3.8-0.5,10.5-15.1-8.6-9.7c-4.6,1.3-10.3,0.2-13-3
					C13.2-2.2,0.2,9,13.3,14.1z"/>
				<path fill="#FBB041" d="M34.3,51.2c14.1-4.4,22.4-12.3,27.6-17.8c3.2-3.3-1.4-22.3-15.5-2.6c-3.4,4.7-9.6,8.1-14.7,7
					C21.8,35.8,17.9,56.2,34.3,51.2z"/>
			</g>
		</g>
		<g>
			<path fill="#F89521" d="M51.2,25c0,0-0.3,0.3-0.8,1c-0.5,0.6-1.2,1.5-2,2.6c-0.4,0.6-0.8,1.2-1.3,1.8c-0.2,0.3-0.4,0.7-0.7,1
				c-0.2,0.3-0.5,0.7-0.8,1c-0.6,0.7-1.2,1.3-1.9,1.9c-0.7,0.6-1.4,1.2-2.2,1.7c-0.8,0.5-1.6,0.9-2.5,1.3c-0.9,0.4-1.7,0.6-2.6,0.8
				c-0.9,0.2-1.7,0.3-2.5,0.3c-0.4,0-0.8,0-1.2-0.1c-0.4-0.1-0.7-0.1-1.1-0.2c-0.7-0.2-1.2-0.2-1.8-0.2c-0.5,0-1,0.1-1.4,0.2
				c-0.8,0.2-1.2,0.4-1.2,0.4s0.1-0.1,0.3-0.2c0.2-0.1,0.5-0.3,0.8-0.4c0.4-0.2,0.9-0.3,1.4-0.4c0.6-0.1,1.2-0.1,1.9,0
				c0.7,0.1,1.4,0.1,2.1,0.1c0.7-0.1,1.5-0.2,2.3-0.4c0.8-0.2,1.6-0.5,2.4-0.8c0.8-0.4,1.6-0.8,2.3-1.2c0.8-0.5,1.5-1,2.1-1.5
				c0.7-0.6,1.3-1.1,1.8-1.7c0.3-0.3,0.5-0.6,0.8-0.9c0.3-0.3,0.5-0.6,0.7-0.9c0.5-0.6,1-1.2,1.4-1.7C49.7,26.1,51.2,25,51.2,25z"/>
		</g>
	</g>
</g>
</svg>
