<?xml version="1.0" encoding="utf-8"?>
<!-- Generator: Adobe Illustrator 19.2.1, SVG Export Plug-In . SVG Version: 6.00 Build 0)  -->
<!DOCTYPE svg PUBLIC "-//W3C//DTD SVG 1.1//EN" "http://www.w3.org/Graphics/SVG/1.1/DTD/svg11.dtd">
<svg version="1.1" xmlns="http://www.w3.org/2000/svg" xmlns:xlink="http://www.w3.org/1999/xlink" x="0px" y="0px"
	 viewBox="0 0 58.5 53.7" enable-background="new 0 0 58.5 53.7" xml:space="preserve">
<g id="Layer_1">
</g>
<g id="Isolation_Mode">
	<g>
		<circle fill="none" stroke="#FCEE23" stroke-width="1.2706" stroke-miterlimit="10" cx="29.3" cy="26.8" r="26.2"/>
		<g>
			<polygon fill="#8B5F3D" points="7.7,19.3 9.8,17.7 25.2,22.9 25.9,25.3 24.2,34.5 0,29.3 			"/>
			<polygon fill="#A97D51" points="3.2,26.2 9.8,17.7 25.2,22.9 23.7,30.6 			"/>
		</g>
		<g>
			<polygon fill="#8B5F3D" points="20.3,25 22.8,24.5 34,36.4 33.4,38.9 27.6,46.1 8.8,30.2 			"/>
			<polygon fill="#A97D51" points="13,28.9 22.8,24.5 34,36.4 29.1,42.5 			"/>
		</g>
		<g>
			<polygon fill="#3C2517" points="56.7,24.7 55.7,22 37.6,18 35.5,20.1 31.8,30 58.5,39 			"/>
			<polygon fill="#4D2F17" points="57.2,34.1 55.7,22 37.6,18 34.5,26.5 			"/>
		</g>
		<g>
			<polygon fill="#3C2517" points="27.3,6.9 29.3,5.3 44.9,9.7 45.7,12.2 44.4,21.4 20,17.3 			"/>
			<polygon fill="#4D2F17" points="23.1,14 29.3,5.3 44.9,9.7 43.8,17.5 			"/>
		</g>
	</g>
</g>
</svg>
