<?xml version="1.0" encoding="utf-8"?>
<!-- Generator: Adobe Illustrator 19.2.1, SVG Export Plug-In . SVG Version: 6.00 Build 0)  -->
<!DOCTYPE svg PUBLIC "-//W3C//DTD SVG 1.1//EN" "http://www.w3.org/Graphics/SVG/1.1/DTD/svg11.dtd">
<svg version="1.1" xmlns="http://www.w3.org/2000/svg" xmlns:xlink="http://www.w3.org/1999/xlink" x="0px" y="0px"
	 viewBox="0 0 65.6 57.4" enable-background="new 0 0 65.6 57.4" xml:space="preserve">
<g id="Layer_1">
</g>
<g id="Isolation_Mode">
	<g>
		<circle fill="none" stroke="#FCEE23" stroke-width="1.2706" stroke-miterlimit="10" cx="36.6" cy="30.5" r="26.2"/>
		<g>
			<polygon fill="#FFFFFF" points="25.5,36.9 30.9,35.1 36.2,33.3 35.1,38.8 34,44.3 29.8,40.6 			"/>
			<polygon fill="#FFFFFF" points="56.9,0 56,5.5 55.1,11.1 60.4,9.1 65.6,7.1 61.2,3.5 			"/>
			<g>
				
					<rect x="51.3" y="6.4" transform="matrix(0.6455 -0.7638 0.7638 0.6455 9.0521 45.226)" fill="#BE202E" width="3.9" height="12.9"/>
				<path fill="#FFFFFF" d="M60.6,14.2c0.9-1.1,0.8-2.8-0.3-3.7l-5.8-4.9c-1.1-0.9-2.8-0.8-3.7,0.3l-1.1,1.4l9.9,8.4L60.6,14.2z"/>
				<path fill="#FFFFFF" d="M40.2,38.3l0.8-0.9L31.1,29l-0.8,0.9c-0.9,1.1-0.8,2.8,0.3,3.7l5.8,4.9C37.6,39.6,39.3,39.4,40.2,38.3z"
					/>
				
					<rect x="34.9" y="15.8" transform="matrix(0.6455 -0.7638 0.7638 0.6455 -0.9723 42.483)" fill="#3C2517" width="20.7" height="12.9"/>
				
					<rect x="35.3" y="25.2" transform="matrix(0.6455 -0.7638 0.7638 0.6455 -10.9967 39.74)" fill="#BE202E" width="3.9" height="12.9"/>
			</g>
		</g>
		<g>
			<polygon fill="#FFFFFF" points="5.7,27.1 8.8,30.5 11.9,33.9 7.4,34.9 2.8,35.9 4.3,31.5 			"/>
			<polygon fill="#FFFFFF" points="43.8,38.7 39.4,39.9 34.9,41 38.1,44.3 41.3,47.6 42.6,43.2 			"/>
			<g>
				
					<rect x="27.6" y="38.5" transform="matrix(0.2909 -0.9568 0.9568 0.2909 -15.0831 59.9866)" fill="#BE202E" width="10.7" height="3.2"/>
				<path fill="#FFFFFF" d="M34.3,46.2c1.2,0.4,2.4-0.3,2.7-1.5l1.8-6c0.4-1.2-0.3-2.4-1.5-2.7L36,35.5l-3.1,10.2L34.3,46.2z"/>
				<path fill="#FFFFFF" d="M9.4,38.6l0.9,0.3l3.1-10.2l-0.9-0.3c-1.2-0.4-2.4,0.3-2.7,1.5l-1.8,6C7.6,37,8.3,38.2,9.4,38.6z"/>
				<polygon fill="#3C2517" points="32.9,45.7 32.9,34.6 16.6,29.6 13.5,39.8 				"/>
				
					<rect x="8.1" y="32.6" transform="matrix(0.2909 -0.9568 0.9568 0.2909 -23.2189 37.1835)" fill="#BE202E" width="10.7" height="3.2"/>
			</g>
		</g>
		<g>
			<polygon fill="#FFFFFF" points="40.9,53.4 39.4,46.7 37.8,40.1 44.4,42.1 50.9,44.1 45.9,48.7 			"/>
			<polygon fill="#FFFFFF" points="0,11 6.6,12.7 13.2,14.5 11.4,7.9 9.6,1.3 4.8,6.1 			"/>
			<g>
				
					<rect x="7.3" y="14.6" transform="matrix(0.7182 -0.6959 0.6959 0.7182 -7.5354 15.3054)" fill="#BE202E" width="15.7" height="4.8"/>
				<path fill="#FFFFFF" d="M17.6,8.2c-1.2-1.3-3.3-1.3-4.6-0.1l-6.7,6.5c-1.3,1.2-1.3,3.3-0.1,4.6l1.5,1.6l11.3-11L17.6,8.2z"/>
				<path fill="#FFFFFF" d="M44.3,35.8l-1-1L32,45.7l1,1c1.2,1.3,3.3,1.3,4.6,0.1l6.7-6.5C45.6,39.1,45.6,37.1,44.3,35.8z"/>
				
					<rect x="17.7" y="15.1" transform="matrix(0.7182 -0.6959 0.6959 0.7182 -12.0943 25.6151)" fill="#3C2517" width="15.7" height="25.2"/>
				
					<rect x="28.2" y="36.1" transform="matrix(0.7182 -0.6959 0.6959 0.7182 -16.6533 35.9249)" fill="#BE202E" width="15.7" height="4.8"/>
			</g>
		</g>
	</g>
</g>
</svg>
