<?xml version="1.0" encoding="utf-8"?>
<!-- Generator: Adobe Illustrator 19.2.1, SVG Export Plug-In . SVG Version: 6.00 Build 0)  -->
<!DOCTYPE svg PUBLIC "-//W3C//DTD SVG 1.1//EN" "http://www.w3.org/Graphics/SVG/1.1/DTD/svg11.dtd">
<svg version="1.1" xmlns="http://www.w3.org/2000/svg" xmlns:xlink="http://www.w3.org/1999/xlink" x="0px" y="0px"
	 viewBox="0 0 167.5 85.8" enable-background="new 0 0 167.5 85.8" xml:space="preserve">
<g id="Layer_1">
</g>
<g id="Isolation_Mode">
	<g>
		<ellipse fill="none" stroke="#FFFFFF" stroke-width="1.3821" stroke-miterlimit="10" cx="22.2" cy="10" rx="21.5" ry="9.3"/>
		<ellipse fill="none" stroke="#FFFFFF" stroke-width="1.3821" stroke-miterlimit="10" cx="22.2" cy="79" rx="14" ry="6"/>
		<line fill="none" stroke="#FFFFFF" stroke-width="1.3821" stroke-miterlimit="10" x1="8.2" y1="79" x2="0.7" y2="10"/>
		<polyline fill="none" stroke="#FFFFFF" stroke-width="1.3821" stroke-miterlimit="10" points="40.6,37.9 36.1,79 43.6,10 		"/>
	</g>
	<g>
		<ellipse fill="#FFFFFF" cx="22.2" cy="79" rx="14" ry="6"/>
		<path fill="#FFFFFF" d="M4.9,48.4L8.2,79h27.9l3.3-30.6c0,0-6.2,2.3-8.3,2.4c-2.3,0.1-8.5-1.2-10.8-1.1c-3,0.1-6.4-3.3-9.3-3.3
			C9.5,46.4,4.9,48.4,4.9,48.4z"/>
	</g>
	<g>
		<ellipse fill="none" stroke="#FFFFFF" stroke-width="1.3821" stroke-miterlimit="10" cx="83.7" cy="10" rx="21.5" ry="9.3"/>
		<ellipse fill="none" stroke="#FFFFFF" stroke-width="1.3821" stroke-miterlimit="10" cx="83.7" cy="79" rx="14" ry="6"/>
		<line fill="none" stroke="#FFFFFF" stroke-width="1.3821" stroke-miterlimit="10" x1="69.8" y1="79" x2="62.3" y2="10"/>
		<polyline fill="none" stroke="#FFFFFF" stroke-width="1.3821" stroke-miterlimit="10" points="102.2,37.9 97.7,79 105.2,10 		"/>
	</g>
	<g>
		<ellipse fill="#603913" cx="83.7" cy="79" rx="14" ry="6"/>
		<path fill="#603913" d="M66.5,48.4L69.8,79h27.9l3.3-30.6c0,0-6.2,2.3-8.3,2.4c-2.3,0.1-8.5-1.2-10.8-1.1c-3,0.1-6.4-3.3-9.3-3.3
			C71.1,46.4,66.5,48.4,66.5,48.4z"/>
	</g>
	<g>
		<ellipse fill="none" stroke="#FFFFFF" stroke-width="1.3821" stroke-miterlimit="10" cx="145.3" cy="10" rx="21.5" ry="9.3"/>
		<ellipse fill="none" stroke="#FFFFFF" stroke-width="1.3821" stroke-miterlimit="10" cx="145.3" cy="79" rx="14" ry="6"/>
		<line fill="none" stroke="#FFFFFF" stroke-width="1.3821" stroke-miterlimit="10" x1="131.4" y1="79" x2="123.8" y2="10"/>
		<polyline fill="none" stroke="#FFFFFF" stroke-width="1.3821" stroke-miterlimit="10" points="163.8,37.9 159.3,79 166.8,10 		"/>
	</g>
	<g>
		<ellipse fill="#F7941E" cx="145.3" cy="79" rx="14" ry="6"/>
		<path fill="#F7941E" d="M128,48.4l3.3,30.6h27.9l3.3-30.6c0,0-6.2,2.3-8.3,2.4c-2.3,0.1-8.5-1.2-10.8-1.1c-3,0.1-6.4-3.3-9.3-3.3
			C132.7,46.4,128,48.4,128,48.4z"/>
	</g>
</g>
</svg>
